<svg width="92" height="83" viewBox="0 0 92 83" fill="none" xmlns="http://www.w3.org/2000/svg">
<path d="M3 12.5554V64.1548C3 69.5064 3 72.1803 4.04148 74.2243C4.95759 76.0223 6.41833 77.487 8.2163 78.4031C10.2583 79.4435 12.9329 79.4435 18.2739 79.4435H73.725C79.0661 79.4435 81.7368 79.4435 83.7788 78.4031C85.5768 77.487 87.0424 76.0232 87.9585 74.2252C89 72.1812 89 69.5054 89 64.1539L89 27.8431C89 22.4915 89 19.8158 87.9585 17.7717C87.0424 15.9738 85.5777 14.513 83.7797 13.5969C81.7357 12.5554 79.0618 12.5554 73.7103 12.5554H45.9995M3 12.5554H45.9995M3 12.5554C3 7.27812 7.27812 3 12.5554 3H30.1113C32.4484 3 33.6198 3 34.7195 3.26402C35.6945 3.49809 36.6249 3.88514 37.4798 4.40905C38.4438 4.99979 39.2716 5.82753 40.9232 7.47911L45.9995 12.5554" stroke="black" stroke-width="6" stroke-linecap="round" stroke-linejoin="round"/>
</svg>
