<svg width="6078" height="3409" viewBox="0 0 6078 3409" fill="none" xmlns="http://www.w3.org/2000/svg">
<path d="M3183.21 98.8433C3314.86 100.51 3774.15 41.3626 3902.25 14.9414C4013.83 21.9069 4045.04 88.7472 4094.6 82.2259C4118.17 175.066 4195.33 530.401 4239.02 585.418L4226.22 607.551C4245.26 687.754 4311.74 1005.89 4330.91 1063.44L4330.18 1081.91C4208.7 1074.83 4152.08 1045.04 4045.16 989.576C3972.58 947.742 3942.97 922.448 3878.54 867.958C3714.21 1067.38 3587.88 870.317 3681.02 776.372C3688.38 768.986 3695.87 761.718 3703.48 754.571L3698.65 734.533C3632.31 733.61 3574.74 823.649 3579.76 887.542C3600.82 1156.46 3902.18 1230.08 4061.01 1367.39L4029.69 1381.27C4026.83 1386.4 4023.38 1392.53 4019.4 1399.69C4067.28 1630.26 4168.38 1999.37 4221.92 2216.16C3514.52 2380.72 2805.86 2539.88 2096.02 2693.55C1837.38 2750.55 1420.05 2824.6 1178.76 2892.96C1139.54 2731.42 1041.34 2388.07 1017.01 2247.9C986.095 2269.54 943.625 2301.58 910.432 2316.68L896.896 2298.15L920.053 2276.47L898.231 2247.24C984.23 2189.8 932.576 2051 867.271 2013.43L878.298 1997.53L864.578 1999.92L823.143 2005.01L774.114 2013.8C736.386 2020.91 622.464 2044.49 590.721 2045.04L530.757 2038.82L556.469 1992.09L542.357 1956.74L390.386 1978.03L376.161 2016.03C351.508 2006 327.683 1994.07 304.894 1980.35C251.122 1948.38 213.348 1905.96 198.547 1843.55C188.188 1801.47 195.37 1757 218.435 1720.35C261.987 1651.69 327.844 1634.95 400.699 1618.73C501.061 1607.4 589.224 1598.7 690.531 1592.71L735.648 1584.43L728.466 1562.31C694.398 1493.36 688.206 1445.32 673.727 1369.85C670.044 1237.92 598.985 1126.97 560.612 975.415C526.314 1067.68 619.678 1084.82 517.957 1164.38C492.36 1176.09 488.056 1178.83 460.226 1176.94L455.138 1164.9L392.804 1147.01L349.644 1145.75L342.254 1126.75C322.826 1123.65 305.701 1120.25 286.457 1116.19C239.452 1059.65 163.259 740.103 171.269 645.705L166.527 615.378C244.608 495.64 406.823 502.845 540.632 482.659L1020.85 408.683C1689.99 312.961 2358.51 212.865 3026.34 108.405C3077.35 103.238 3105.62 116.67 3150.53 93.4414L3157.11 105.871L3183.21 98.8433Z" fill="#151416"/>
<path d="M3183.21 99.064C3314.86 100.731 3774.15 41.5833 3902.25 15.1621C4013.83 22.1277 4098.53 81.9414 4098.53 81.9414C4098.53 81.9414 4195.33 530.621 4239.02 585.639L4226.22 607.772C4245.26 687.975 4311.74 1006.11 4330.91 1063.66L4330.18 1082.13C4208.7 1075.05 4152.08 1045.26 4045.16 989.797L4049.09 958.024C4041.89 884.692 3904.88 350.13 3881.03 293.883L3852.88 279.993C3805.64 263.845 3722.31 283.998 3668.89 291.553L3652.73 248.218C3651.16 245.571 3650.06 242.7 3649.39 239.708C3643.2 218.871 3647.85 196.943 3650.22 174.748C3034.28 271.628 2417.6 363.814 1800.23 451.293C1538.99 489.975 1075.34 544.601 828.115 599.506C708.808 607.519 593.16 617.776 477.559 651.938L504.538 774.565L516.232 792.736C527.189 837.356 554.167 934.439 560.612 975.636C526.314 1067.9 619.678 1085.04 517.957 1164.6C492.36 1176.32 488.056 1179.05 460.226 1177.16L455.138 1165.12L392.804 1147.24L349.644 1145.97L342.254 1126.97C322.826 1123.87 305.701 1120.47 286.457 1116.41C239.452 1059.87 163.259 740.324 171.269 645.926L166.527 615.598C244.608 495.86 406.823 503.065 540.632 482.88L1020.85 408.904C1689.99 313.182 2358.51 213.086 3026.34 108.626C3077.35 103.458 3148.03 93.4414 3148.03 93.4414L3183.21 99.064Z" fill="#2A0E09"/>
<path d="M3650.26 174.744C3774.38 152.83 3862.58 111.997 3878.72 269.138C3879.57 277.379 3880.36 285.624 3881.07 293.879L3852.92 279.989C3805.68 263.841 3722.35 283.995 3668.93 291.549L3652.77 248.214C3651.2 245.567 3650.1 242.696 3649.43 239.704C3643.24 218.867 3647.89 196.939 3650.26 174.744Z" fill="#E9E4E2"/>
<path d="M3649.4 239.708C3646.04 224.635 3654.86 209.527 3669.63 205.023C3684.39 200.518 3700.13 208.137 3705.77 222.51C3711.41 236.883 3705.04 253.174 3691.16 259.907C3677.25 266.637 3660.52 261.548 3652.74 248.218C3651.17 245.57 3650.07 242.7 3649.4 239.708Z" fill="#6D3019"/>
<path d="M3756.14 197.936C3763.99 189.235 3776.22 185.978 3787.36 189.626C3798.48 193.277 3806.42 203.148 3807.57 214.802C3808.74 226.457 3802.92 237.701 3792.72 243.479C3780.11 250.64 3764.15 247.588 3755.06 236.272C3745.97 224.956 3746.43 208.718 3756.14 197.936Z" fill="#6D3019"/>
<path d="M171.295 645.926C212.338 686.821 329.067 1064.56 310.398 1107.85L286.483 1116.41C239.478 1059.87 163.285 740.324 171.295 645.926Z" fill="#B8B6B5"/>
<path d="M392.805 1147.24C442.157 1147.77 471.736 1145.37 517.958 1164.6C492.361 1176.32 488.056 1179.06 460.226 1177.16L455.139 1165.13L392.805 1147.24Z" fill="#B09680"/>
<path d="M828.15 599.502C1075.37 544.597 1539.02 489.971 1800.26 451.29C2417.63 363.811 3034.31 271.624 3650.25 174.744C3647.88 196.939 3643.23 218.867 3649.43 239.704C3650.09 242.696 3651.2 245.567 3652.76 248.214L3668.92 291.549C3722.35 283.994 3805.68 263.841 3852.91 279.989L3881.07 293.879C3904.91 350.126 4041.92 884.688 4049.13 958.02C4017.04 939.365 3986.88 922.983 3957.74 899.872C3905.47 731.189 3867.81 539.45 3817.65 384.067L1769.37 710.356L1070.77 821.515C959.497 839.405 784.46 863.067 677.03 888.949L850.501 1570.93C810.955 1566.62 767.91 1560.61 728.501 1562.52C694.433 1493.58 688.241 1445.54 673.762 1370.07C670.079 1238.14 599.02 1127.18 560.647 975.632C554.202 934.435 527.224 837.352 516.267 792.732L504.573 774.561L477.594 651.934C593.195 617.772 708.842 607.515 828.15 599.502Z" fill="#F5EEEC"/>
<path d="M828.115 599.502C1075.34 544.597 1538.99 489.971 1800.23 451.29C2417.6 363.811 3034.28 271.624 3650.22 174.744C3647.85 196.939 3643.2 218.867 3649.39 239.704C3650.06 242.696 3651.16 245.567 3652.73 248.214L3668.89 291.549C3106 372.203 2543.72 457.07 1982.08 546.141C1699.96 590.462 1277.38 667.811 997.927 690.438C961.234 671.176 828.991 725.487 768.727 705.209C771.697 671.965 768.474 663.819 758.369 632.426L755.398 623.315L817.204 616.994L828.115 599.502Z" fill="#F5EEEC"/>
<path d="M3668.92 291.554C3722.35 283.999 3805.68 263.846 3852.91 279.994C3795 309.452 3121.42 397.92 2994.49 417.249C2169.19 547.436 1343.11 672.601 516.267 792.737L504.573 774.566L477.594 651.939C593.195 617.777 708.842 607.52 828.15 599.507L817.239 616.999L755.433 623.32L758.403 632.431C768.508 663.824 771.731 671.97 768.762 705.214C829.026 725.492 961.269 671.181 997.961 690.443C1277.41 667.816 1699.99 590.467 1982.11 546.146C2543.75 457.075 3106.04 372.208 3668.92 291.554Z" fill="#2B2929"/>
<path d="M477.594 651.938C593.195 617.776 708.842 607.519 828.15 599.506L817.239 616.998L755.433 623.319L758.403 632.43C768.508 663.823 771.731 671.969 768.762 705.213C829.026 725.491 961.269 671.18 997.961 690.442C932.771 711.132 585.922 764.895 504.573 774.565L477.594 651.938Z" fill="#E9E4E2"/>
<path d="M534.931 672.497C548.006 660.221 568.471 660.644 581.039 673.448C593.584 686.251 593.607 706.738 581.061 719.561C572.729 728.104 560.413 731.462 548.881 728.339C537.348 725.215 528.417 716.099 525.516 704.509C522.616 692.922 526.23 680.673 534.931 672.497Z" fill="#AA6540"/>
<path d="M400.737 1618.95C501.1 1607.63 589.262 1598.92 690.569 1592.94L737.021 1627.79C669.322 1669.5 622.847 1697.97 649.434 1781.65C714.002 1848.96 744.779 1847.9 835.98 1849.53C845.395 1849.69 854.833 1849.79 864.248 1849.81C858.723 1802.44 834.645 1648.46 848.824 1610.62C902.32 1617.32 949.601 1724.93 938.437 1777.71C924.05 1845.69 866.134 1880.22 808.909 1910.99L817.082 1931.41C816.76 1938.04 815.309 1956.59 816.437 1961.93L823.181 2005.23L774.152 2014.03C736.424 2021.14 622.502 2044.71 590.759 2045.26L530.795 2039.05L556.507 1992.32L542.395 1956.96L390.424 1978.25L376.199 2016.26C351.546 2006.22 327.721 1994.3 304.932 1980.58C251.16 1948.61 213.386 1906.18 198.585 1843.78C188.226 1801.7 195.408 1757.23 218.473 1720.58C262.025 1651.91 327.882 1635.18 400.737 1618.95Z" fill="#EFB896"/>
<path d="M808.896 1910.99L817.068 1931.41C816.746 1938.04 815.296 1956.59 816.424 1961.93L823.167 2005.23L774.138 2014.03C736.41 2021.14 622.488 2044.71 590.745 2045.26L530.781 2039.05L556.494 1992.32L542.382 1956.96C626.079 1945.38 724.439 1925.63 808.896 1910.99Z" fill="#0B0A0A"/>
<path d="M878.323 1997.75C1037.02 2044.46 1062.87 2207.57 920.079 2276.69L898.257 2247.46C984.256 2190.03 932.602 2051.22 867.297 2013.66L878.323 1997.75Z" fill="#EFB896"/>
<path d="M817.068 1931.4C862.691 1909.1 889.531 1896.3 931.863 1866.58L965.425 1983.77C915.658 1977.65 865.407 1972.38 816.423 1961.93C815.295 1956.59 816.745 1938.03 817.068 1931.4Z" fill="#F5EEEC"/>
<path d="M735.68 1584.64C773.823 1586.99 795.346 1580.69 817.858 1601.7C789.361 1620.95 770.761 1621.94 737.015 1627.78L690.562 1592.93L735.68 1584.64Z" fill="#DDBBA5"/>
<path d="M706.977 905.48L3800.01 414.25C3841.56 564.465 3886.47 727.115 3920.86 878.973C3876.55 837.723 3825.86 792.786 3785.28 748.626C3768.18 681.074 3748.89 595.637 3725.98 531.592L1665.26 887.398C1421.37 930.002 1084.14 975.015 852.481 1026.12C982.86 1574.98 1128.52 2136.53 1264.8 2684.91C1355.26 2667.23 1440.94 2650.45 1530.64 2628.28L1546.78 2628.74C2343.99 2457.97 3145.56 2303.16 3941.42 2124.81C3971.6 2118.05 4004.7 2107.76 4034.37 2098.5L4040.15 2088.93C3937.55 2090.28 3814.54 2123.55 3714.66 2149.58C3518.1 2200.8 3302.71 2226.37 3108.46 2279.48L3031.43 1987.74C3074.89 1978.14 3178.32 1957.56 3215.52 1942.66L3219.43 1927.45L3224.36 1939.17L3243.21 1926L3235.68 1924.23L3237.31 1931.13L3219.82 1937.78L3207.02 1925.74C3139.39 1936.38 3093.33 1947.36 3027.04 1964.76C3002.34 1869.51 2975.7 1771.89 2954.3 1676.06C3074.85 1644.31 3849.09 1500.38 3878.69 1471.76C3779.64 1466.17 3375.8 1554.26 3254 1583.91L3191.14 1376.52L3820.75 1250.43C3889.65 1286.87 3914.37 1302.59 3975.85 1350.41C4050.64 1631.54 4123.31 1913.25 4193.8 2195.48C3195.9 2427.74 2195.71 2650.01 1193.35 2862.23C1149.33 2662.49 1096.99 2468.35 1048.35 2269.92C1037.3 2224.78 1047.8 2150.64 1035.41 2108.91C1012.65 2032.05 977.588 1956.91 959.311 1877.84C945.638 1818.61 975.723 1751.45 958.62 1694.24C943.773 1644.61 908.577 1610.85 872.944 1575.17C827.735 1349.92 755.339 1128.57 706.977 905.48Z" fill="#F7F1ED"/>
<path d="M3816.1 1783.33C3831.06 1781.1 3844.99 1783.38 3859.95 1784.9C3901.99 1833.05 3909.07 1944.21 3920.06 2006.32L3479.1 2093.35C3468.51 2095.42 3455.83 2094.22 3444.97 2094.34C3401.99 2050.97 3390.37 1939.1 3377.41 1879.62C3522.01 1839.59 3668.87 1811.62 3816.1 1783.33Z" fill="#F18932"/>
<path d="M3763.38 1599.45C3785.87 1595.4 3801.8 1595.97 3824.08 1601.01L3819.78 1612.13C3641.75 1652.9 3461.83 1687.27 3283.39 1726.67C3271.88 1731.25 3253.4 1732.08 3240.83 1734.13L3229.71 1723.36C3288.04 1678.01 3665.83 1619.36 3763.38 1599.45Z" fill="#2B2929"/>
<path d="M3647.54 1726.14C3667.38 1720.94 3679.28 1723.59 3698.92 1728.72L3696.41 1739.5C3574.29 1783.92 3423.1 1799.76 3294.68 1829.18C3272.65 1837.05 3269.4 1838.34 3246.94 1832.63L3250.64 1813.55C3364.5 1765.07 3524.55 1751.26 3647.54 1726.14Z" fill="#151416"/>
<path d="M3053.8 774.075C3148.15 727.204 3551.35 690.716 3592.12 651.043L3585.31 655.281C3483.79 619.857 3112.63 780.373 3011.9 706.774C3044.02 660.953 3604.3 581.199 3707.72 555.793C3722.22 599.343 3747.64 656.08 3736.75 698.331C3675.03 773.163 3531.51 663.144 3557.11 948.89C3591.43 1022.06 3625.52 1085.19 3681.62 1144.87L3698.88 1168.53C3661.84 1198.58 3232.08 1279.65 3175.71 1270.99C3150.43 1198.43 3133.26 1110.07 3116.36 1034.01L3111.46 986.124C3144.19 928.491 3494.8 915.913 3537.7 869.675C3401.91 853.062 3157.48 970.733 3071.32 908.787L3060.93 912.039C3037.25 881.99 3026.54 888.081 2980.41 875.982C3008.75 838.512 3001.13 849.485 3053.78 833.342L3053.8 774.075Z" fill="#F5EEEC"/>
<path d="M3557.12 948.891C3591.44 1022.06 3625.53 1085.19 3681.63 1144.87L3698.89 1168.53C3661.85 1198.58 3232.09 1279.65 3175.72 1271C3150.44 1198.43 3133.27 1110.07 3116.38 1034.01C3188.52 1006.33 3471.23 960.667 3557.12 948.891Z" fill="#F18932"/>
<path d="M3681.63 1144.88L3698.89 1168.54C3661.86 1198.59 3232.09 1279.66 3175.72 1271C3197.01 1233.28 3229.79 1232.51 3274.42 1224.75C3412.54 1200.74 3546.07 1182 3681.63 1144.88Z" fill="#E6AE77"/>
<path d="M3053.78 833.349L3063.63 833.015C3182.08 828.241 3318.84 786.659 3435.18 784.242C3340.8 828.487 3140.58 840.869 3088.51 868.57L3071.32 908.793L3060.93 912.046C3037.25 881.997 3026.54 888.088 2980.41 875.989C3008.75 838.519 3001.13 849.492 3053.78 833.349Z" fill="#151416"/>
<path d="M2980.41 875.993L3088.51 868.574L3071.32 908.798L3060.93 912.05C3037.25 882.001 3026.54 888.092 2980.41 875.993Z" fill="#DAD6D7"/>
<path d="M2436.7 1260.38C2500.63 1278.88 2566.69 1292.64 2631.4 1308.34C2653.06 1369.15 2667.81 1429.15 2680.86 1492.3C2638.65 1541.62 2595.88 1582.07 2544.27 1621.43C2479.72 1607.57 2415.55 1584.51 2352.38 1565.04C2336.87 1512.87 2319.19 1461.13 2302.52 1409.3C2343.2 1354.51 2387.81 1307.87 2436.7 1260.38Z" fill="#43BFB9"/>
<path d="M1144.8 1002.71C1150.95 1002.33 1161.38 1007.14 1166.88 1008.96C1199.68 1103.58 1218.6 1204.09 1241.12 1301.62C1152.4 1320.01 1062.72 1334.75 973.566 1350.98L960.928 1347.19C925.318 1251.53 905.706 1147.2 881.375 1048.05C967.926 1026.82 1056.71 1015.63 1144.8 1002.71Z" fill="#F7F1ED"/>
<path d="M2392.29 2119.22C2438.88 2161.92 2462.11 2345.7 2477.3 2412.69L2207.31 2467.27L2192 2457.83C2158.28 2366.72 2141.82 2266.15 2120.48 2171.36C2210.83 2152.69 2301.44 2135.31 2392.29 2119.22Z" fill="#F7F1ED"/>
<path d="M1196.61 1336.08L1236.8 1333.61C1290.5 1381.45 1306.43 1554.88 1320.15 1626.77L1074.49 1673.87H1058.91C1003.96 1629.78 982.093 1451.2 965.312 1379.81C1041.99 1362.17 1118.99 1348.86 1196.61 1336.08Z" fill="#F5EEEC"/>
<path d="M1422.27 956.417C1437.12 952.55 1450.61 954.435 1465.78 955.315C1515.11 1013.96 1532.81 1166.05 1550.49 1243.73C1476 1261.04 1399.83 1273.45 1324.67 1287.75L1293.13 1291.35C1228.98 1250.43 1208.45 1069.05 1191.37 992.253C1267.97 978.421 1345.27 967.867 1422.27 956.417Z" fill="#F7F1ED"/>
<path d="M1686.05 1922.99L1701.4 1921.4C1751.88 1969.05 1769.93 2143.12 1784.78 2215.05C1705.98 2234.78 1625.53 2246.91 1545.45 2260.17C1528.97 2263.41 1524.5 2261.11 1508.94 2255.98C1468.63 2169.8 1453.21 2065.11 1430.86 1972.87C1515.62 1953.44 1600.3 1937.33 1686.05 1922.99Z" fill="#F7F1ED"/>
<path d="M1385.27 1980.07L1396.41 1980.65C1442.22 2027.58 1465.65 2205.33 1483.26 2276.83C1394.94 2291.75 1307.14 2311.66 1219.37 2329.68L1204.41 2324.46C1165 2236.02 1149.46 2125.37 1126.67 2030.87C1212.39 2011.56 1298.62 1994.62 1385.27 1980.07Z" fill="#F5EEEC"/>
<path d="M1305.73 1658.22L1320.27 1659.58C1366.31 1706.28 1387.03 1881.67 1402.06 1950.93C1320.5 1969.44 1236.62 1981.8 1154.28 1996.74C1143.33 1997.06 1134.81 1993.45 1124.5 1990.13C1083.18 1905.44 1069.94 1797.74 1043.54 1706.45C1130.37 1687.48 1217.82 1671.41 1305.73 1658.22Z" fill="#F7F1ED"/>
<path d="M1603.99 1600.85C1618.45 1598.08 1622.8 1601.91 1636.01 1607.68C1671.9 1695.87 1687.78 1795.82 1708.89 1888.63C1625.1 1909.99 1538.87 1922.58 1453.65 1937.13L1443.43 1938.72C1394.29 1902.83 1369.66 1714.35 1355.02 1649.39C1437.68 1629.62 1520.09 1614.27 1603.99 1600.85Z" fill="#F5EEEC"/>
<path d="M1531.52 1278.75L1547.86 1279.13C1591.81 1325.59 1615.95 1498.67 1633.63 1565.2C1547.17 1586.03 1460.46 1601.29 1372.78 1615.84L1358.21 1614.64C1309.45 1558.87 1291.96 1399.18 1274.72 1322.54C1359.18 1304.3 1446.21 1292.96 1531.52 1278.75Z" fill="#F7F1ED"/>
<path d="M1973.71 1864.62C1994.11 1861.91 1998.04 1861.79 2016.8 1869.94C2055.27 1955.36 2068.76 2061.78 2091.75 2152.84L1845.15 2204.11L1825.38 2204.91C1776.97 2167.14 1753.47 1971.09 1739.95 1906.89L1973.71 1864.62Z" fill="#F7F1ED"/>
<path d="M1781.78 2246.05C1821.99 2279.01 1852.1 2476.35 1866.77 2535.21C1779.94 2558.94 1688.87 2573.56 1600.62 2591.79L1587.61 2584.56C1546.59 2502.75 1533.68 2385.06 1512.64 2295.26C1602.09 2275.47 1691.25 2259.95 1781.78 2246.05Z" fill="#F7F1ED"/>
<path d="M2679.07 2061.67L2698.43 2059.67C2742.39 2101.36 2767.09 2279.92 2783.53 2347.06C2700.98 2367.32 2619.22 2384.54 2535.27 2397.77L2517.01 2398.62C2465.61 2355.23 2444.89 2180.11 2429.22 2110.98C2512.32 2091.09 2594.54 2074.19 2679.07 2061.67Z" fill="#F7F1ED"/>
<path d="M1756.29 898.066L1764.39 898.096C1811.01 940.601 1836.95 1119.8 1854.03 1187.55C1772.66 1208.38 1690.36 1222.08 1607.59 1236C1590.94 1238.18 1588.34 1234.37 1574.21 1226.14C1538.12 1135.24 1518.5 1033.1 1502.39 936.768C1587.4 928.647 1672.06 912.133 1756.29 898.066Z" fill="#F5EEEC"/>
<path d="M1896.02 1542.18L1922.33 1539.28C1975.5 1581.61 1996.43 1762.4 2011.43 1831.81C1933.19 1844.86 1856.65 1862.26 1779.59 1881L1746.49 1879.46C1692.53 1825.25 1676.19 1658.57 1660.6 1582.23C1739.4 1571.65 1817.75 1556.15 1896.02 1542.18Z" fill="#F5EEEC"/>
<path d="M2055.59 2186.34C2072.55 2182.08 2080.26 2185.07 2095.6 2191.47C2134.89 2274.69 2148.15 2384.92 2169.03 2474.58L1926.01 2525.29L1905.76 2526.03C1853.18 2482.25 1833.06 2307.9 1817.69 2237.74C1896 2217.57 1976.45 2203.05 2055.59 2186.34Z" fill="#F5EEEC"/>
<path d="M1204.27 2358.57C1298.83 2339.99 1395.12 2318.61 1489.63 2298.72C1505.01 2381.17 1549.53 2526.31 1552.7 2597.36L1529.39 2608.69C1451.21 2621.1 1362.84 2640.89 1284.4 2656.59L1204.27 2358.57Z" fill="#F5EEEC"/>
<path d="M1839.64 1220.92L1854.95 1223.76C1895.49 1304.53 1909.8 1420.32 1931.67 1509.01C1846.11 1526.64 1760.34 1543.1 1674.34 1558.36C1668.8 1558.2 1659.06 1550.86 1653.95 1547.96C1621.44 1456.73 1602.66 1360.42 1581.02 1266.14C1664.54 1244.47 1754.36 1235 1839.64 1220.92Z" fill="#F7F1ED"/>
<path d="M2960.96 2002.12L2992.7 1997.84C3048.68 2046.16 3067.12 2210.68 3083.67 2284.22L2857.41 2333.23L2825.56 2339.17C2768.79 2298.65 2748.28 2116.64 2733.27 2046.62C2809.28 2032.42 2885.18 2017.59 2960.96 2002.12Z" fill="#F7F1ED"/>
<path d="M2074.19 841.352C2112.94 871.776 2131.9 1029.16 2144.56 1083.66C2112.11 1114.11 2075.11 1140.55 2040.03 1167.91C1987.21 1174.47 1934.33 1180.61 1881.41 1186.35C1851.79 1088.03 1829.2 987.326 1804.73 887.613C1894.92 877.763 1984.97 857.771 2074.19 841.352Z" fill="#F7F1ED"/>
<path d="M2731.61 727.695C2797.6 715.025 2984.66 661.494 3019.21 719.442C2998.47 772.842 2987.47 725.906 2952.32 772.264C2979.52 786.405 3021.05 777.563 3053.81 774.083L3053.78 833.349C3001.14 849.493 3008.76 838.519 2980.42 875.99C3026.55 888.088 3037.26 881.998 3060.94 912.047C3040.02 923.906 3018.13 932.511 3007.7 952.767L3010.48 985.005C2969.69 994.365 2875.68 1011.51 2840.72 1023.08L2814.52 1026.86C2774.54 998.175 2743.46 788.787 2731.61 727.695Z" fill="#F5EEEC"/>
<path d="M2082.4 1837.63C2174.47 1842.35 2262.45 1870.73 2350.38 1896.26C2364.01 1949.29 2398.52 2027.19 2383 2079.42C2355.33 2106.72 2335.12 2104.99 2297.44 2111.95C2237.8 2116.39 2172.81 2136.67 2114 2149.47C2091.72 2063.58 2046.81 1947.13 2054.91 1858L2082.4 1837.63Z" fill="#F7F1ED"/>
<path d="M2683.1 737.607L2701.59 745.093C2733.17 834.237 2749.79 930.145 2770.32 1022.41C2708.33 1008.44 2647.72 990.501 2586.81 972.553L2445.52 930.025C2439.56 881.023 2429.71 832.119 2421.4 783.445C2508 764.344 2595.51 751.235 2683.1 737.607Z" fill="#F5EEEC"/>
<path d="M3072.85 981.859C3091.1 1012.76 3136.54 1226.71 3149.43 1278.58L2956.77 1321.72C2939.73 1243.99 2914.94 1094.44 2863.06 1040.84L2840.73 1023.08C2875.69 1011.51 2969.7 994.365 3010.49 985.006L3048.27 992.549L3072.85 981.859Z" fill="#F7F1ED"/>
<path d="M3010.49 985.006L3048.27 992.549C2977.71 1028.9 2922.72 1020.44 2863.06 1040.84L2840.73 1023.08C2875.69 1011.51 2969.7 994.365 3010.49 985.006Z" fill="#3E3E3F"/>
<path d="M3137.44 1313.63L3154.93 1320.52C3184.62 1409.02 3203.27 1501.71 3224.54 1592.55L3053.21 1627.83L3036.54 1625.74C3025.77 1532.9 2991.17 1436.52 2966.75 1346.12C3023.08 1331.75 3080.12 1322.91 3137.44 1313.63Z" fill="#F7F1ED"/>
<path d="M2865.6 1570.04C2882.98 1570.73 2901.39 1570.84 2918.52 1573.97C2946.56 1579.08 2957.33 1585.32 2972.94 1608.59C2956.09 1695.12 2772.56 1831.07 2705.27 1896.79C2692.68 1910.81 2682.99 1917.14 2665.33 1923.63C2633.04 1895.11 2627.4 1848.59 2614.9 1807.61C2694.73 1724.65 2780.82 1647.86 2865.6 1570.04Z" fill="#EE9946"/>
<path d="M2229.52 1719.04C2350.88 1742.68 2469.45 1778.66 2588.3 1812.36C2602.61 1849.53 2624.97 1891.2 2612.05 1929.46L2576.23 1929.41L2146.56 1813.23L2229.52 1719.04Z" fill="#E05CD5"/>
<path d="M2933.19 1710.65C2958.51 1731.67 2991.64 1924.11 3002.85 1968.72C2919.89 1983.45 2837.39 2001.82 2754.84 2018.83H2741.88C2715.78 1994.82 2716.29 1965.5 2709.22 1931.57C2781.36 1855.81 2858.5 1783.94 2933.19 1710.65Z" fill="#F5EEEC"/>
<path d="M2861.9 1099.73C2900.8 1137.75 2955.96 1406.55 2974.46 1476.34C2981.09 1501.34 2999.97 1547.42 2987.54 1568.74L2936.14 1565.58L2893.25 1545.44C2822.22 1457.9 2802.58 1293.45 2776.89 1185.41L2861.9 1099.73Z" fill="#E05CD5"/>
<path d="M2382.73 947.699C2528.84 970.476 2689.88 1021.5 2830.04 1069.42C2827 1096.65 2801.73 1118.28 2784.55 1139.53C2776.93 1149.09 2765.19 1156.22 2755.43 1163.62C2646.46 1153.77 2529.25 1107.82 2422.44 1079.26L2382.73 947.699Z" fill="#E05CD5"/>
<path d="M2349.11 794.796C2375.91 791.157 2379.94 787.913 2402.31 802.201C2410.04 838.092 2416.72 870.678 2414.9 907.548L2401 917.381L2360.21 908.991C2297.83 939.12 2239.61 1001.06 2187.06 1046.63L2168.87 1050.01C2134.28 1004.05 2123.83 893.904 2110.77 835.535C2190.35 822.941 2269.72 808.419 2349.11 794.796Z" fill="#F5EEEC"/>
<path d="M2392.52 1112.82C2412.04 1139.68 2419.61 1197.45 2428.5 1230.46C2389.46 1270.35 2352.83 1332.55 2305.6 1361.43C2277.24 1378.75 2260.46 1367.75 2230.7 1359.98C2198.63 1354.13 2169.65 1348.77 2140.05 1334.52L2143.15 1318.41C2235.46 1264.61 2305.19 1175.34 2392.52 1112.82Z" fill="#E05CD5"/>
<path d="M1962.63 1273.37C2036.78 1211.98 2109.93 1149.42 2182.07 1085.7C2231.91 1124.15 2243.07 1131.9 2302.65 1151.48C2246.18 1211.96 2178.62 1266.48 2115.18 1320.03C2065.3 1301.42 2013.87 1287.82 1962.63 1273.37Z" fill="#E05CD5"/>
<path d="M2691.99 1513.54C2746.47 1516.9 2794.77 1534.28 2846.03 1551.52C2788.04 1612.27 2724.42 1668.78 2663.4 1726.56C2648.07 1742.65 2638.67 1752.46 2616.94 1758.49C2583.94 1730.7 2575.81 1683.72 2561.49 1643.23L2691.99 1513.54Z" fill="#E8A7C5"/>
<path d="M2202.15 1578.55C2187 1515.36 2170.57 1453.49 2163.06 1388.93C2242.16 1322.92 2402.28 1523.3 2273.51 1635.89L2292.24 1645.95L2248.83 1691.64L2233.41 1673.04L2207.72 1677.05C2190.57 1630.66 2182.74 1616.07 2188.11 1567.71L2202.15 1578.55Z" fill="#E05CD5"/>
<path d="M2188.11 1567.71L2202.15 1578.55C2213.91 1619.59 2210.67 1637.25 2237.94 1658.29C2250.76 1650.74 2261.65 1644.96 2273.51 1635.89L2292.24 1645.95L2248.83 1691.64L2233.41 1673.04L2207.72 1677.05C2190.57 1630.66 2182.74 1616.07 2188.11 1567.71Z" fill="#54275E"/>
<path d="M2292.26 1645.95C2385.18 1571.05 2430.88 1610.87 2538.05 1650.12C2550.85 1691.21 2567.06 1738.83 2576.79 1780.18C2518.05 1766.27 2290.35 1716.18 2248.84 1691.65L2292.26 1645.95Z" fill="#E05CD5"/>
<path d="M2376.3 1900.05C2442.18 1919.32 2569.57 1969.34 2631.93 1971.02C2646.11 1971.39 2669.18 1959.86 2686.39 1958.61C2698.29 1982.55 2693.44 2002.74 2690.1 2028.18C2602.17 2049.1 2513.89 2068.46 2425.29 2086.3L2376.3 1900.05Z" fill="#F5EEEC"/>
<path d="M2422.84 1104.57L2485.59 1119.36C2552.8 1135.29 2681.78 1150.02 2718.58 1209.68L2689.58 1244.12C2675.42 1258.08 2662.99 1267.54 2645.04 1276.3C2606.62 1295.02 2493.55 1245.55 2454.21 1232.27C2442.29 1190 2432.5 1147.39 2422.84 1104.57Z" fill="#E05CD5"/>
<path d="M2747.26 1226.05C2753.98 1232.58 2758.79 1237.07 2763.1 1245.54C2788.92 1296.68 2845.83 1470.63 2828.38 1519.99L2796.29 1517.41C2772.7 1510.34 2750.99 1500.17 2728.73 1489.85C2687.83 1439.26 2676.18 1368.62 2657.97 1307L2747.26 1226.05Z" fill="#E05CD5"/>
<path d="M1969.2 1309.98C1998.23 1316.19 2027.76 1322.24 2056.01 1331.46C2084.69 1340.83 2115.28 1356.87 2127.6 1386.41C2151.26 1443.11 2103.15 1528.9 2082.02 1582.37L2070.99 1606.54C2014.87 1557.49 1988.56 1383.83 1969.2 1309.98Z" fill="#E05CD5"/>
<path d="M3685.16 1208.57C3721.56 1202.58 3737.6 1199.58 3770.61 1216.66C3717.39 1270.43 3394.34 1311.71 3302.93 1328.39C3275.79 1334.88 3248.13 1342.48 3220.07 1342.42C3198.2 1342.38 3195.94 1342.01 3180.7 1326.56L3190.37 1305.37C3349.66 1260.97 3522.35 1240.33 3685.16 1208.57Z" fill="#E9E4E2"/>
<path d="M803.804 1630.35C815.728 1642.82 817.89 1661.33 821.78 1677.7C834.556 1731.28 844.615 1762.64 813.977 1812.63C776.686 1826.93 753.115 1818.23 714.834 1811.85C710.323 1808.81 705.443 1805.8 701.323 1802.21C676.416 1780.48 670.707 1759.41 668.359 1727.79C693.059 1670.33 750.124 1652.47 803.804 1630.35Z" fill="#EFB896"/>
<path d="M2182.08 1085.7L2356.24 938.877L2388.9 1075.79L2302.65 1151.48C2243.08 1131.9 2231.91 1124.14 2182.08 1085.7Z" fill="#EB6F91"/>
<path d="M2076.29 1651.67C2093.62 1605.57 2108.49 1523.67 2161.25 1526.98L2188.12 1567.7C2182.75 1616.06 2190.58 1630.66 2207.73 1677.04C2194.88 1722.76 2148.25 1758.8 2112.73 1792.9C2097.33 1746.33 2087.32 1699.39 2076.29 1651.67Z" fill="#E3A27E"/>
<path d="M3733.45 762.121C3747.52 767.367 3760.69 775.235 3773.14 783.589C3803.73 804.062 3827.42 823.303 3835.01 860.698C3826.29 900.73 3811.97 907.67 3782.55 935.093C3757.35 934.19 3725.12 926.438 3705.74 909.005C3685.32 890.641 3675.72 871.659 3676.62 843.565C3677.77 808.067 3709.33 784.334 3733.45 762.121Z" fill="#EFB896"/>
<path d="M1979.99 1513.75C1986.09 1518.33 1991.57 1523.16 1996.65 1528.89C2032.24 1568.95 2092.3 1776.39 2088.18 1830.95L2054.22 1826.78C2045.96 1821.05 2039.31 1815.06 2034.26 1806.18C2003.07 1751.19 1958.21 1572.24 1979.99 1513.75Z" fill="#F7F1ED"/>
<path d="M1990.26 1198.73C2006.72 1235.49 1932.99 1240.91 1934.37 1274.47C1937.09 1341.05 1996.84 1429.45 1985.72 1494.87C1984.37 1503.02 1982.18 1510.67 1979.3 1518.35C1978.08 1516.67 1976.91 1514.97 1975.67 1513.31C1926.52 1448.12 1889.04 1304.78 1893.65 1222.67C1919.75 1199.83 1956.15 1202.59 1990.26 1198.73Z" fill="#E9E4E2"/>
<path d="M3007.7 952.758L3072.85 981.849L3048.26 992.539L3010.49 984.996L3007.7 952.758Z" fill="#E9E4E2"/>
<path d="M1529.41 2608.69L1552.72 2597.37L1546.79 2628.74L1530.65 2628.28L1529.41 2608.69Z" fill="#858281"/>
<path d="M3183.23 99.0645L3191.51 87.2073C3346.75 44.8547 3710.43 22.2801 3891.43 0L3902.27 15.1626C3774.17 41.5838 3314.87 100.731 3183.23 99.0645Z" fill="#151416"/>
<path d="M4239.06 585.637C4593.76 789.566 4774.46 967.841 5019.82 1296.61C5078.31 1375.01 5202.59 1556.36 5272.66 1600.39C5485.77 1734.38 5830.73 1809.24 6053.95 1922.22L6069.83 1935.75C6075.81 2063.65 6065.92 2215.55 6067.99 2346.09C6072.82 2684.84 6059.24 3039.42 6070.29 3376.83C5852.62 3240.77 5601.21 3111.68 5377.42 2979.67C5243.91 2917.7 5059.64 2777.88 4926.43 2734.74C4671.79 2652.34 4543.23 2700.12 4328.95 2501.63C4347.48 2491.11 4380.44 2481.53 4401.55 2475.92C4638.19 2412.92 4623.78 2355.67 4574.68 2136.73C4565.24 2117.7 4570.28 2118.71 4577.51 2091.2C4344.3 1925.35 4250.27 1818.59 4155.02 1549.34C4133.34 1488.04 4104.88 1415.76 4061.05 1367.61C3902.22 1230.29 3600.86 1156.68 3579.8 887.761C3574.78 823.867 3632.35 733.828 3698.69 734.751L3703.52 754.789C3695.91 761.937 3688.42 769.204 3681.06 776.591C3587.92 870.536 3714.25 1067.59 3878.58 868.176C3943.01 922.667 3972.62 947.96 4045.2 989.795C4152.12 1045.26 4208.74 1075.05 4330.22 1082.12L4330.95 1063.66C4311.78 1006.11 4245.3 687.972 4226.26 607.77L4239.06 585.637Z" fill="#EFB896"/>
<path d="M4239.03 585.637C4593.73 789.566 4774.42 967.841 5019.78 1296.61C5078.27 1375.01 5202.55 1556.36 5272.62 1600.39C5485.73 1734.38 5830.69 1809.24 6053.91 1922.22L6069.79 1935.75L6051.84 1945.17C5993.37 1933.04 5764.86 1835.92 5685.79 1808.41C5583.61 1772.87 5378.65 1695.3 5294.72 1644.75C5139.04 1550.97 5009.42 1315.88 4887.12 1171.22C4799.88 1068.02 4737.52 999.589 4640.84 901.271L4628.48 890.555C4471.33 757.257 4403.13 706.974 4226.23 607.77L4239.03 585.637Z" fill="#0B0A0A"/>
<path d="M4577.48 2091.21C4610.58 2109.35 4680.4 2144.64 4705.72 2167.72C4667.07 2177.25 4607.63 2138.77 4574.65 2136.74C4565.21 2117.7 4570.25 2118.72 4577.48 2091.21Z" fill="#2A0E09"/>
<path d="M4330.96 1063.66C4382.24 1045.27 4422.87 1029.65 4473.08 1007.72L4481.18 1013.28C4431.69 1059.81 4397.48 1069.9 4330.22 1082.13L4330.96 1063.66Z" fill="#2A0E09"/>
<path d="M4061.02 1367.62C4104.84 1415.77 4133.3 1488.04 4154.98 1549.34C4250.23 1818.6 4344.27 1925.36 4577.47 2091.21C4570.24 2118.72 4565.2 2117.7 4574.64 2136.74C4623.74 2355.67 4638.15 2412.92 4401.51 2475.93C4380.4 2481.54 4347.44 2491.12 4328.91 2501.64L4313.67 2513.86C4261.05 2492.48 3540.7 2673.13 3438.33 2696.06C2825.06 2837.35 2210.8 2974.24 1595.59 3106.76C1448.04 3139.36 1054.76 3238.87 923.369 3246.97L891.303 3214.4C888.656 3200.4 849.156 3106.42 839.718 3079.51C803.924 2977.39 774.437 2825.26 734.384 2730.63L702.571 2723.84L680.68 2711.73C753.374 2684.11 797.502 2668.78 864.096 2628.77L832.237 2602.3C758.76 2588.53 707.06 2580.87 702.48 2495.95C718.455 2453.23 727.823 2447.59 764.561 2419.16L751.509 2413.01C737.559 2384.17 745.295 2389.72 721.424 2375.72L722.367 2381.29L688.277 2376.55L679.115 2387.56L604.372 2375.24L602.898 2353.88C688.943 2338.94 822.178 2325.47 896.898 2298.38L910.433 2316.91C943.626 2301.81 986.096 2269.77 1017.01 2248.13C1041.34 2388.29 1139.54 2731.64 1178.76 2893.19C1420.05 2824.82 1837.38 2750.77 2096.03 2693.78C2805.86 2540.1 3514.52 2380.95 4221.92 2216.39C4168.38 1999.59 4067.28 1630.48 4019.4 1399.92C4023.38 1392.76 4026.83 1386.62 4029.69 1381.5L4061.02 1367.62Z" fill="url(#paint0_linear_492_1113)"/>
<path d="M4029.72 1381.5C4154.43 1488.73 4295.17 2090.61 4338.4 2271.7C3261.83 2527.81 2182.97 2774.13 1101.93 3010.65C1084.28 2927.05 941.099 2354.73 910.461 2316.91C943.654 2301.81 986.124 2269.77 1017.04 2248.13C1041.37 2388.29 1139.57 2731.64 1178.79 2893.19C1420.08 2824.82 1837.41 2750.77 2096.05 2693.78C2805.89 2540.1 3514.55 2380.95 4221.95 2216.38C4168.4 1999.59 4067.31 1630.48 4019.43 1399.92C4023.41 1392.76 4026.86 1386.62 4029.72 1381.5Z" fill="#F5EEEC"/>
<path d="M819.834 2438.68L845.846 2414.44C851.439 2463.73 870.499 2537.09 860.946 2577.16C854.455 2583.01 838.48 2598.18 832.241 2602.3C758.765 2588.53 707.065 2580.87 702.484 2495.95C718.46 2453.23 727.827 2447.59 764.566 2419.16L781.324 2436.75L819.834 2438.68Z" fill="#23160F"/>
<path d="M781.336 2436.74L819.847 2438.67C829.192 2475.11 845.029 2515.12 828.616 2547.42C798.462 2570.43 812.872 2565.6 774.154 2564.96C739.327 2540.39 750.306 2553.81 733.641 2513.05C744.298 2461.78 738.498 2478.63 781.336 2436.74Z" fill="#DDBBA5"/>
<path d="M845.886 2414.44C930.826 2453.9 930.826 2572.72 864.14 2628.77L832.281 2602.3C838.519 2598.18 854.495 2583.01 860.986 2577.16C870.539 2537.09 851.479 2463.73 845.886 2414.44Z" fill="#E3A27E"/>
<path d="M166.538 615.602L171.28 645.929C163.269 740.328 239.462 1059.87 286.467 1116.41C305.711 1120.47 322.836 1123.87 342.264 1126.97L349.654 1145.98L392.815 1147.24L455.149 1165.13L460.236 1177.16C488.066 1179.06 492.371 1176.32 517.968 1164.6C619.689 1085.04 526.324 1067.9 560.622 975.639C598.995 1127.19 670.055 1238.15 673.738 1370.08C688.217 1445.55 694.409 1493.59 728.477 1562.53L735.659 1584.65L690.541 1592.94C589.235 1598.92 501.072 1607.62 400.709 1618.95C327.854 1635.18 261.998 1651.91 218.446 1720.58C195.381 1757.23 188.198 1801.7 198.557 1843.78C213.358 1906.18 251.132 1948.6 304.905 1980.58C327.693 1994.3 351.518 2006.22 376.171 2016.26L390.397 1978.25L542.368 1956.96L556.479 1992.32L530.767 2039.05L590.731 2045.26C622.474 2044.71 736.396 2021.14 774.124 2014.02L823.153 2005.23L864.588 2000.14L878.308 1997.75L867.282 2013.66C932.587 2051.22 984.241 2190.03 898.242 2247.46L920.064 2276.69L896.907 2298.38C822.187 2325.47 688.953 2338.94 602.908 2353.88L604.382 2375.24L679.124 2387.55L688.286 2376.55L722.376 2381.29L721.434 2375.72C745.304 2389.72 737.569 2384.17 751.518 2413.01L764.57 2419.16C727.832 2447.59 718.464 2453.23 702.489 2495.95C707.07 2580.87 758.77 2588.53 832.246 2602.3L864.105 2628.77C797.511 2668.78 753.383 2684.11 680.69 2711.73L702.58 2723.84L734.393 2730.63C774.446 2825.26 803.933 2977.39 839.728 3079.5C849.165 3106.41 888.665 3200.4 891.312 3214.4L923.378 3246.97C739.341 3225.26 716.99 2954.72 668.903 2801.9C474.692 2770.59 317.45 2609.2 503.811 2445.01C313.513 2349.02 216.235 2212.52 424.096 2061.65C192.687 1991.79 32.8659 1782.8 295.628 1622.43C177.563 1568.29 29.7813 1503.1 3.81593 1361.91C-26.2929 1198.29 127.888 1145.71 251.155 1122.62C208.04 992.567 95.8005 734.073 166.538 615.602Z" fill="#0B0A0A"/>
<path d="M517.979 1164.59C619.7 1085.03 526.336 1067.9 560.634 975.633C599.006 1127.18 670.066 1238.14 673.749 1370.07C688.228 1445.54 694.42 1493.58 728.488 1562.52L735.67 1584.65L690.553 1592.93C589.246 1598.92 501.083 1607.62 400.721 1618.94L405.118 1605.96L428.574 1585.75C438.564 1541.95 430.232 1543.44 413.036 1493.63L428.574 1475.79C393.953 1480.21 292.232 1489.51 271.538 1509.56L336.084 1522.01C348.192 1559.32 348.56 1543.88 335.139 1580.18C266.313 1596.36 165.03 1542.27 113.721 1498.07C32.0496 1427.77 -5.2645 1309.79 77.9491 1224.97C154.832 1146.59 248.888 1149.57 349.665 1145.97L392.826 1147.23L455.16 1165.12L460.248 1177.15C488.077 1179.05 492.382 1176.31 517.979 1164.59Z" fill="#EFB896"/>
<path d="M637.975 1350.98L655.355 1358.33L663.757 1383.22L673.747 1370.08C688.226 1445.55 694.418 1493.59 728.486 1562.53L735.668 1584.65L690.551 1592.94C589.244 1598.92 501.081 1607.63 400.719 1618.95L405.116 1605.97L428.572 1585.76C438.562 1541.95 430.23 1543.45 413.035 1493.64L428.572 1475.8C547.695 1449.05 570.944 1444.61 637.975 1350.98Z" fill="#23160F"/>
<path d="M517.957 1164.59C619.678 1085.03 526.314 1067.9 560.612 975.633C598.985 1127.18 670.044 1238.14 673.727 1370.07L663.737 1383.21L655.335 1358.32L637.956 1350.98C638.692 1290.21 637.127 1203.84 575.298 1175.85L550.668 1186.52C520.03 1267.36 593.414 1347.59 521.48 1400.89C387.739 1417.18 268.156 1258.38 460.226 1177.15C488.056 1179.05 492.36 1176.31 517.957 1164.59Z" fill="#23160F"/>
<path d="M501.92 1193.92C508.181 1199.48 512.094 1204.21 514.764 1212.3C531.499 1262.98 540.016 1300.52 515.409 1349.51C483.413 1375.37 468.818 1368.18 428.627 1366.75C416.105 1353.87 400.682 1334.85 394.743 1317.58C387.285 1295.94 388.758 1275.78 398.403 1255.39C416.358 1217.38 465.481 1205.46 501.92 1193.92Z" fill="#EFB896"/>
<path d="M864.618 2000.14L878.337 1997.75L867.311 2013.66C932.616 2051.22 984.27 2190.03 898.271 2247.46L920.093 2276.69L896.936 2298.38C822.217 2325.47 688.982 2338.94 602.937 2353.88C576.212 2362.76 559.594 2371.12 534.733 2383.25C547.486 2395.22 550.109 2398.83 560.444 2412.21C434.806 2436.95 282.836 2282.91 364.093 2159.64C420.95 2073.41 498.224 2066.02 590.76 2045.26C622.504 2044.71 736.425 2021.14 774.154 2014.02L823.183 2005.23L864.618 2000.14Z" fill="#EFB896"/>
<path d="M864.581 2000.14L878.3 1997.75L867.274 2013.66C932.579 2051.22 984.233 2190.03 898.234 2247.46L887.345 2245.99C729.228 2223.08 659.343 2120.9 823.192 2032.74L774.116 2014.02L823.145 2005.23L864.581 2000.14Z" fill="#23160F"/>
<path d="M864.613 2000.14C854.3 2009.1 834.595 2028.32 823.224 2032.74L774.148 2014.02L823.178 2005.23L864.613 2000.14Z" fill="#DDBBA5"/>
<path d="M795.02 2074.7C843.682 2054.49 834.152 2049.64 877.451 2059.35C927.977 2110.11 937.623 2148.04 892.551 2206.46C816.635 2243.16 736.92 2181.17 773.681 2092.31L795.02 2074.7Z" fill="#EFB896"/>
<path d="M751.528 2413.02L764.58 2419.16C727.842 2447.59 718.474 2453.23 702.499 2495.95C707.08 2580.87 758.779 2588.54 832.256 2602.3L864.115 2628.77C797.521 2668.78 753.393 2684.11 680.699 2711.73L648.979 2722.41L650.591 2756.62L638.827 2765.07C542.124 2749.88 387 2656.07 460.753 2538.22C515.17 2451.23 655.677 2433.02 751.528 2413.02Z" fill="#EFB896"/>
<path d="M702.591 2723.84L734.403 2730.63C774.456 2825.26 803.943 2977.39 839.738 3079.5C849.176 3106.41 888.676 3200.4 891.323 3214.4C887.225 3212.6 883.106 3210.83 879.008 3209.03C785.206 3194.76 680.308 2768.15 702.591 2723.84Z" fill="#B8B6B5"/>
<path d="M405.131 1605.97C377.209 1546 364.18 1537.23 413.049 1493.64C430.244 1543.45 438.577 1541.95 428.587 1585.76L405.131 1605.97Z" fill="#B8B6B5"/>
<path d="M376.172 2016.25L390.397 1978.25C416.524 1991.16 441.915 1999.7 453.355 2026.38C424.144 2037.13 412.012 2026.47 376.172 2016.25Z" fill="#F2C380"/>
<path d="M530.765 2039.04L495.707 2024.74L489.469 2006.47C521.12 1982.97 509.565 1989.36 556.477 1992.31L530.765 2039.04Z" fill="#DDBBA5"/>
<path d="M604.373 2375.24L679.116 2387.55C651.056 2401.6 623.755 2417.57 596.109 2405.55L604.373 2375.24Z" fill="#B09680"/>
<path d="M4328.91 2501.63C4543.19 2700.12 4671.75 2652.33 4926.39 2734.74C5059.6 2777.88 5243.87 2917.7 5377.38 2979.66C5601.17 3111.68 5852.58 3240.77 6070.25 3376.83L6077.39 3408.97C5997.74 3376.12 5847.08 3277.97 5765.39 3232.3C5507.9 3088.36 5233.79 2920.04 4973.63 2786.44C4768.87 2681.32 4501.53 2744.27 4313.67 2513.85L4328.91 2501.63Z" fill="#151416"/>
<defs>
<linearGradient id="paint0_linear_492_1113" x1="2461.21" y1="1741.83" x2="2722.25" y2="2847.6" gradientUnits="userSpaceOnUse">
<stop stop-color="#1A0901"/>
<stop offset="1" stop-color="#35110D"/>
</linearGradient>
</defs>
</svg>
