<svg width="7996" height="4659" viewBox="0 0 7996 4659" fill="none" xmlns="http://www.w3.org/2000/svg">
<path d="M4822.5 2607.48C4853.87 2570.91 4883.27 2529.68 4929.24 2511.36L4953.52 2515.92C4975.48 2565.38 4987.59 2593.9 5037.59 2617.15C5110.99 2608.22 5104.78 2522.66 5192.62 2574.25C5211.36 2616.46 5213.11 2650.16 5249.87 2680.16L5293.54 2687.18C5323.51 2658.77 5343.14 2627.67 5385.43 2625.55C5486.32 2689.52 5471.43 2823.93 5685.34 2777.16C5716.51 2770.34 5825.53 2716.87 5840.37 2716.99C5846.31 2717.05 5862.29 2726.22 5868.55 2728.86C5888.32 2761.27 5893.11 2801.47 5927.69 2816.22C5974.09 2810.42 5982.91 2757.82 6030.92 2759.64C6112.46 2762.73 6102.35 2835.79 6213.24 2784.22C6449.09 2674.56 7107.04 1743.56 7261.08 1694.28C7289.17 1685.28 7316.53 1700.24 7338.29 1716.86C7363.19 1735.85 7390.59 1763.91 7393.69 1796.46C7399.82 1860.96 6775.2 2532.14 6688.39 2634.97C6787.08 2623.34 6855.69 2620.97 6938.82 2686.07C7062.45 2782.91 7116.25 2947.18 7226.46 3057.53C7345.26 3176.49 7531.56 3218.41 7642.05 3339.76C7668.2 3368.47 7680.58 3406.63 7691.47 3443.17C7742.39 3614.01 7771.87 3792.36 7815.84 3965.31C7874.31 4195.33 7948.24 4426.12 7995.48 4658.27H7966.89H6542.68H6503.73H6028.35H5995.22H5938.41H5906.12H5194.69H5099.81H4955.18H4791.24H4402.06H4361.96H1738.87H1703.88H0V4254.33V4228.8L74.9645 4191.6C393.866 4018.25 724.333 3861.72 1049.9 3701.09C1179.23 3637.31 1328.91 3579.46 1450.3 3502.65C1460.76 3496.04 1464.83 3489.76 1468.67 3478.13C1497.31 3391.44 1495.56 3394.39 1577.58 3349.34C1691.39 3286.87 1812.26 3236.13 1932.41 3187.31C1964.93 3211.11 2001.02 3233.99 2030.16 3261.75C2151.44 3202.76 2271.48 3142.54 2388.43 3075.28C2580.24 2964.92 3300.71 2504.52 3478.58 2477.57C3592.53 2460.28 3796.06 2540.15 3919.19 2561.4C4031.31 2580.76 4161.76 2574.68 4268.91 2611.08C4294.33 2619.94 4319.42 2629.68 4344.16 2640.29C4388.38 2582.88 4424.25 2517.85 4502.35 2508.32C4553.27 2502.1 4616.39 2525.7 4665.72 2538.64C4688.18 2509.29 4709.27 2474.46 4746.31 2463.32C4770.57 2468.59 4778.6 2471.14 4792.18 2493.22C4810.16 2522.5 4815.62 2573.67 4822.5 2607.48Z" fill="#151416"/>
<path d="M6663.59 2673.62C6741.72 2657.04 6813.08 2636.53 6884.99 2683.84C7036.82 2783.72 7276.27 3174.03 7361.71 3341.9L7375.64 3337.92C7366.13 3271.79 7324.14 3205.86 7293.69 3146.5C7348.18 3179.48 7418.91 3214.43 7461.38 3261.55C7504.36 3309.26 7531.43 3396.78 7578.21 3433.45C7571.67 3397.22 7554.66 3343.91 7566.74 3309.03C7587.69 3310.51 7599.82 3328.76 7613.42 3344.25C7641.78 3376.57 7655.89 3421.27 7667.91 3461.97C7715.42 3622.71 7740.6 3792.02 7782.18 3954.74C7841.82 4188.31 7918.27 4422.58 7966.88 4658.27H6542.67C6384.86 4480.63 6279.18 4288.15 6144.54 4096.21C6036.95 3942.84 5912.05 3801.16 5811.04 3643.2C5823.29 3637.45 5833.99 3633.14 5847.55 3631.25C5916.63 3621.59 5966.72 3547.81 6011.51 3498.87C5998.25 3471.94 5984.88 3443.86 5968.24 3418.83C5931.89 3364.21 5893.72 3343.45 5830.61 3330.49L5783.97 3320.64C5840.48 3296.3 5892.18 3306.16 5948.09 3328.74C6194.83 3428.43 6354.45 3932.02 6627.36 3823.28C6687.14 3799.45 6733.75 3742.53 6757.46 3684.01C6809.35 3555.89 6828.5 3363.04 6771.71 3235.44C6749.32 3185.08 6723.26 3134.85 6704.77 3082.94C6686.7 3032.18 6679.71 2931.11 6647.69 2895.29C6633.05 2932.07 6639.86 2980.6 6640.92 3019.75C6518.48 3080.75 6404.58 3104.03 6268.33 3110.54C6395.84 2964.92 6519.86 2803.12 6663.59 2673.62Z" fill="#EFB896"/>
<path d="M6153.75 3770.03L6161.64 3786.44C6144.66 3829.24 6097.74 3865.88 6065.38 3898.02L6060.82 3893.3C6064.96 3855.11 6127.23 3800.65 6153.75 3770.03Z" fill="#23160F"/>
<path d="M6104.73 3735.59L6112.78 3741.39C6104.91 3777.07 6066.63 3808.93 6042.23 3836.62L6033.44 3830.13C6043.11 3793.76 6079.45 3762.78 6104.73 3735.59Z" fill="#151416"/>
<path d="M92.0255 4209.44C382.564 4060.94 674.049 3914.31 966.461 3769.52C1159.41 3673.21 1365.07 3548.79 1573.77 3494.7C1575.41 3494.26 1577.07 3493.87 1578.72 3493.46C1808.17 3765.72 1949.97 4100.99 1985.5 4455.28C1891.93 4515.68 1785.9 4582.9 1703.88 4658.26H0V4254.32V4228.8L74.9645 4191.6L92.0255 4209.44Z" fill="#A466EF"/>
<path d="M74.9645 4191.6L92.0255 4209.44C62.2191 4224.43 31.2483 4243.07 0 4254.33V4228.8L74.9645 4191.6Z" fill="#151416"/>
<path d="M4479.97 2525.58C4528.67 2533.24 4613.87 2537.07 4653.9 2562.62L4654.31 2612.8L4676.25 2626.17C4677.31 2625.09 4678.37 2624.01 4679.47 2622.95C4705.21 2597.84 4727.49 2582.55 4764.02 2582.78C4787.98 2582.97 4812.82 2591.07 4835.63 2597.86C4849.77 2620.09 4847.88 2640.33 4847.92 2665.67L4864.24 2677.85L4878.15 2672.49L4885.81 2621.25C4923.82 2609.3 5021 2635.75 5058.16 2653.91C5060.64 2674.28 5061.79 2693.64 5061.29 2714.15L5075.56 2724.58C5101.55 2702.48 5079.31 2679.12 5109.83 2662.89C5169.31 2677.46 5232.76 2688.53 5287.68 2716.36L5287.15 2723.1C5285.84 2741.93 5285.91 2754.82 5291.71 2772.8C5322.97 2769.53 5319.15 2756.44 5342.19 2744.63C5402.22 2713.85 5524.54 2776.56 5580.32 2798.24L5468.45 2960.38L5492.09 2968.81L5490.41 2974.89C5464.6 2993.78 5461.84 3022.03 5455.56 3051.35L5450.1 3049.51C5411.31 3036.25 5387.35 3013.33 5346.68 3024.19L5340.39 3057.98C5357.08 3064.45 5371.19 3068.9 5383.46 3082.34L5317.1 3171.49L5290.76 3206.57C5234.11 3292.94 5176.24 3376.64 5110.32 3456.3L5060.87 3521.63L5022.94 3573.36C4952.68 3670.31 4718.44 4026.02 4642 4077.82C4613.94 4081.75 4592.02 4079.29 4564.45 4074.46C4544.42 4089.03 4541.29 4089.53 4534.87 4113.08C4557.31 4115.06 4577.47 4117.16 4599.13 4123.99C4600.91 4171.07 4434.5 4386.75 4398.09 4438.27C4364.11 4425.24 4329.03 4409.15 4293.79 4400.36L4287.55 4390.12C4040.53 4251.08 3546.11 4073.56 3263.34 4039.15C3454.31 3960.79 3630.22 3861.14 3817.43 3776.57C3935.94 3723.05 4058.79 3681.75 4182.01 3640.64C4299.22 3702.1 4474.97 3765.22 4606.57 3784.88C4557.56 3730.94 4278.32 3663.2 4192.92 3632.28C4281.24 3594.19 4367.54 3545.87 4460.05 3518.94C4512.42 3536.13 4561.11 3550.89 4616.28 3556.76C4585.25 3532.15 4537.72 3522.78 4500.22 3510.98C4518.15 3495.39 4536.25 3479.72 4553.05 3462.93C4574.18 3441.83 4589.51 3418.25 4587.81 3386.88C4585.67 3347.7 4554.71 3304.45 4525.08 3280.74C4340.47 3133.19 3973.23 3352.28 3766.08 3376.06C3843.21 3290.34 3899.24 3239.6 4007.92 3194.46C4050.91 3176.62 4097.41 3160.63 4135.44 3133.14C4199.02 3087.26 4216.86 3023.69 4228.87 2950.21C4371.59 3016.07 4510.83 3123.4 4665.06 3157.66C4719.52 3169.74 4785.91 3173.56 4834.27 3140.72C4860.88 3122.65 4881.58 3094.24 4887.36 3062.5C4874.14 3026.84 4854.42 3005.82 4827.74 2979.26C4789.57 2958.84 4757.74 2935.89 4724.66 2908.06C4594.51 2851.87 4474.76 2740.94 4360.93 2656.81C4399.03 2612.13 4435.98 2564.62 4479.97 2525.58Z" fill="#F5EEEC"/>
<path d="M4904.8 3324C4938.71 3299.34 4953.46 3211.78 4976.6 3172.83C5009.54 3117.35 5082.28 3093.32 5118.07 3038.61L5109.35 3003.25L5123.3 2980.34C5222.76 2913.54 5352.66 2954.47 5462.02 2960.11L5468.47 2960.39L5492.11 2968.81L5490.43 2974.89C5464.62 2993.79 5461.86 3022.03 5455.58 3051.36L5450.12 3049.52C5411.33 3036.26 5387.37 3013.33 5346.7 3024.2L5340.41 3057.99C5357.1 3064.46 5371.21 3068.9 5383.48 3082.34L5317.12 3171.49L5290.78 3206.58C5234.13 3292.94 5176.26 3376.64 5110.34 3456.31L5060.89 3521.64L5022.96 3573.36L4918.54 3532.06C4914.77 3479.47 4915.71 3380.71 4883.48 3338.82L4904.8 3324Z" fill="#F2C380"/>
<path d="M5208.57 3041.27C5236.33 3024.1 5242.57 3013.42 5275.35 3020.3C5299.7 3043.5 5306.13 3051.97 5340.4 3057.98C5357.09 3064.45 5371.2 3068.89 5383.47 3082.33L5317.11 3171.49L5290.77 3206.57C5253.3 3201.37 5241.79 3203.46 5213.38 3177.17C5193.68 3137.14 5204.77 3084.48 5208.57 3041.27Z" fill="#F7F1ED"/>
<path d="M5208.58 3041.27C5236.34 3024.1 5242.58 3013.42 5275.36 3020.3C5299.71 3043.5 5306.13 3051.97 5340.41 3057.98C5357.1 3064.45 5371.21 3068.89 5383.48 3082.33L5317.11 3171.49C5281.25 3134.98 5290.78 3109.11 5269.6 3070.23C5257.03 3047.14 5232.36 3047.48 5208.58 3041.27Z" fill="#F1D9BF"/>
<path d="M5060.89 3521.63C5024.7 3512.77 4995.75 3504.94 4965.09 3483.12L4969.23 3453.33C5005.28 3439.89 5071.11 3454.6 5110.34 3456.3L5060.89 3521.63Z" fill="#F1D9BF"/>
<path d="M5142.71 3080.72C5144.85 3083.18 5144.73 3082.84 5146.65 3086.59C5155.58 3104.34 5149.45 3284.78 5141.88 3310.43C5100.7 3330.22 5048.75 3325.5 5003.84 3326.1C4993.09 3324.68 4983.1 3319.29 4973.13 3315.08C4971.54 3307.64 4970.27 3300.39 4970.3 3292.73C4970.62 3218.74 5092.23 3125.7 5142.71 3080.72Z" fill="#F7F1ED"/>
<path d="M4744.39 2902.29C4826.25 2886.61 4971.64 2948.76 5041.5 2990.47C4983.58 2976.75 4925.99 2963.45 4869.55 2944.36L4827.77 2979.26C4789.6 2958.84 4757.77 2935.89 4724.69 2908.06L4744.39 2902.29Z" fill="#757171"/>
<path d="M4724.69 2908.06L4744.39 2902.28C4782.56 2924.65 4827.05 2933.35 4869.55 2944.36L4827.77 2979.25C4789.6 2958.84 4757.77 2935.89 4724.69 2908.06Z" fill="#F7F1ED"/>
<path d="M4883.46 3338.82C4848.47 3327.84 4817.65 3315.71 4785.63 3297.75L4785.61 3286.36C4828.1 3283.8 4867.17 3306.59 4904.78 3323.99L4883.46 3338.82Z" fill="#B09680"/>
<path d="M3722.1 3888.76C3821.41 3905.98 4270.97 4042.39 4330.4 4099.98C4242.68 4098 3796.75 3944.85 3722.1 3888.76Z" fill="#3E3E3F"/>
<path d="M4805.12 2773.76C4904.44 2774.94 5184.54 2840.61 5263.36 2896.82C5179.57 2899.08 4875.9 2818.93 4805.12 2773.76Z" fill="#575453"/>
<path d="M4390.55 3164.24C4476.22 3166.36 4646.08 3222.78 4712.1 3276.51C4614.15 3265.43 4475.44 3213.25 4390.55 3164.24Z" fill="#3E3E3F"/>
<path d="M4114.51 3888.87C4121.85 3888.18 4129.1 3887.89 4136.51 3888.05C4207.09 3889.66 4362.61 3937.97 4412.26 3988.8C4314.96 3970.59 4202.56 3933.58 4114.51 3888.87Z" fill="#575453"/>
<path d="M4514.23 2693.3C4566.79 2705.57 4714.52 2726.4 4745.25 2771.61C4678.77 2758.21 4557.56 2748.06 4514.23 2693.3Z" fill="#575453"/>
<path d="M3823.62 3785.59C3901.77 3795.97 3981.56 3826.93 4051.42 3862.84C3977.94 3862.19 3884.92 3824.79 3823.62 3785.59Z" fill="#575453"/>
<path d="M4583.16 3405.16C4585.48 3405.39 4587.81 3405.57 4590.13 3405.82C4648.48 3412.5 4742.15 3421.78 4780.66 3469.06C4712.96 3458.35 4642.18 3440.56 4583.16 3405.16Z" fill="#575453"/>
<path d="M4200.69 3142.49C4253.75 3137.1 4299.9 3150.29 4348.38 3170.44C4294.77 3174.21 4248.2 3168.82 4200.69 3142.49Z" fill="#575453"/>
<path d="M4902.5 3085.52C4910.28 3084.53 4918.11 3083.56 4925.93 3083.1C4962.92 3080.91 4975.52 3085.96 5002.66 3111.11C4957.05 3113.09 4938.75 3114.11 4902.5 3085.52Z" fill="#979592"/>
<path d="M5340.41 3057.98L5346.69 3024.19C5387.37 3013.32 5411.33 3036.25 5450.12 3049.51L5455.57 3051.35L5455.92 3056.69C5424.45 3093.32 5452.93 3125.68 5426.06 3161.52C5389.19 3210.76 5325.24 3223.14 5330.14 3296.16C5330.99 3309 5342.11 3322.81 5348.56 3334.05L5360.02 3340.81C5402.54 3365.93 5418.7 3352.74 5464 3360.08L5510.36 3356.03L5559.89 3310.66C5550.59 3347.61 5542.54 3379.42 5546.54 3417.68C5572.39 3455.89 5586.34 3459.89 5632.2 3471.33L5615.99 3496.93C5575.32 3543.8 5534.71 3597.98 5488.17 3638.73L5463.91 3668.93C5429.17 3712.2 5396.41 3751.87 5375.33 3803.91L5363.77 3815.97C5340.41 3874.23 5308.23 3938.66 5296.58 4000.1L5282.7 4013.13L5291.98 4039.33C5370.66 4029.43 5494.34 3921.4 5562.36 3873.61C5711.22 3933.62 5877.44 3949.85 6031.21 3996.4C6083.35 4052.24 6195.61 4169.73 6193.4 4249.28L6170.63 4286.37L6199.57 4288.92C6112.74 4412.16 6026.74 4536.1 5938.42 4658.26H5906.12H5194.7C5020.01 4568.51 4623.09 4488.63 4423.15 4451.48C4480.21 4354.78 4563.61 4203.2 4652.51 4136.17C4675.67 4143.65 4697.37 4152.95 4719.52 4162.91L4736.48 4153.73C4739.66 4114.23 4698.52 4119.64 4685.91 4082.76C4792.19 3911.34 4926 3754.44 5039.27 3586.96C5054.03 3565.25 5070.76 3547.39 5089 3528.72L5143.37 3452.16L5173.11 3414.66L5267.21 3286.81C5282.38 3241.21 5338.5 3183.48 5366.86 3142.44C5381.64 3121.05 5410.46 3090.99 5405.83 3065.9L5383.48 3082.33C5371.21 3068.89 5357.1 3064.45 5340.41 3057.98Z" fill="#F7F1ED"/>
<path d="M5340.39 3057.98L5346.67 3024.19C5387.34 3013.32 5411.31 3036.25 5450.09 3049.51L5455.55 3051.35L5455.9 3056.69C5424.43 3093.32 5452.9 3125.68 5426.04 3161.52C5389.16 3210.76 5325.22 3223.14 5330.12 3296.16C5330.97 3309 5342.09 3322.81 5348.53 3334.05L5360 3340.81C5402.51 3365.93 5418.67 3352.74 5463.98 3360.08C5461.93 3360.61 5459.9 3361.16 5457.83 3361.67C5428.59 3368.9 5399.68 3370.76 5369.71 3372.65C5338.04 3427.78 5423.14 3531.02 5354.04 3553.46C5281.16 3547.41 5221.93 3472.16 5143.34 3452.16L5173.08 3414.66L5267.19 3286.81C5282.36 3241.21 5338.48 3183.48 5366.83 3142.44C5381.61 3121.05 5410.43 3090.99 5405.81 3065.9L5383.45 3082.33C5371.19 3068.89 5357.07 3064.45 5340.39 3057.98Z" fill="#E6AE77"/>
<path d="M5267.21 3286.81C5309.01 3324.49 5323.22 3425.04 5339.21 3479.14C5283.58 3458.65 5226.97 3439.47 5173.11 3414.66L5267.21 3286.81Z" fill="#F7F1ED"/>
<path d="M5906.12 4658.26C5991.89 4532.6 6080.07 4408.62 6170.63 4286.36L6199.56 4288.92C6112.74 4412.16 6026.74 4536.1 5938.41 4658.26H5906.12Z" fill="#1B0D24"/>
<path d="M5510.35 3356.03L5559.89 3310.66C5550.59 3347.61 5542.53 3379.42 5546.54 3417.68C5572.39 3455.89 5586.34 3459.9 5632.19 3471.34L5615.98 3496.93L5510.47 3489.06C5484.57 3471.66 5524.76 3425.87 5512.31 3365.29L5510.35 3356.03Z" fill="#D67934"/>
<path d="M5039.27 3586.96C5054.02 3565.26 5070.76 3547.39 5088.99 3528.73C5091.13 3529.49 5093.27 3530.27 5095.43 3530.98C5137 3544.52 5177.82 3526.01 5214.07 3552.11L5220.86 3568.27C5172.8 3601.37 5094.76 3593.73 5039.27 3586.96Z" fill="#E3A27E"/>
<path d="M5282.69 4013.14C5213.38 3987.4 5142.39 3979.46 5072.76 3948.38C5132.98 3951.79 5246.09 3967.03 5296.57 4000.11L5282.69 4013.14Z" fill="#3E3E3F"/>
<path d="M5363.77 3815.98C5299.71 3804.31 5240.05 3793.95 5180.8 3765.59C5247.94 3773.63 5312.37 3777.03 5375.33 3803.92L5363.77 3815.98Z" fill="#757171"/>
<path d="M5463.87 3668.93C5434.34 3658.32 5405.31 3649.45 5380.5 3629.59C5412.38 3619.51 5455.36 3632.74 5488.14 3638.73L5463.87 3668.93Z" fill="#858281"/>
<path d="M4882.23 4235.11C4957.96 4232.04 5650.69 4399.07 5749.26 4430.28C5769.33 4436.66 5785.86 4446.42 5802.13 4459.56C5734.41 4464.47 4948.48 4275.87 4882.23 4235.11Z" fill="#575453"/>
<path d="M5432.56 4039.54C5434.2 4039.35 5435.83 4039.1 5437.49 4038.96C5514.19 4032.1 5870.82 4115.24 5928.21 4161.49C5812.58 4150.16 5534.31 4092.13 5432.56 4039.54Z" fill="#575453"/>
<path d="M4835.52 4326.42C4951.26 4338.99 5135.87 4378.42 5234.11 4438.25C5132.14 4429.87 4912.24 4391.79 4835.52 4326.42Z" fill="#3E3E3F"/>
<path d="M5368.28 4476.21C5374.27 4475.98 5379.91 4475.91 5385.89 4476.21C5467.63 4480.21 5662.19 4513.06 5718.35 4574.94C5604.94 4555 5474.4 4520.91 5368.28 4476.21Z" fill="#575453"/>
<path d="M5515.25 4259.05C5516.79 4258.77 5518.33 4258.47 5519.9 4258.24C5587.62 4248.81 5767.52 4281.68 5819.4 4321.45C5741.71 4331.03 5583.75 4293.65 5515.25 4259.05Z" fill="#5B4F4B"/>
<path d="M5079.82 4153.87C5152.26 4139.6 5247.17 4175.81 5311.71 4207.32C5235.68 4211.37 5150.42 4179.74 5079.82 4153.87Z" fill="#575453"/>
<path d="M2439.25 4175.3C2679.55 4036.5 2890.52 4048.33 3157.93 4048.35C3144.97 4061.31 3131.37 4074.36 3119.81 4088.61C3101.21 4111.51 3093.29 4122.49 3096.4 4151.91C3267.41 4283.97 4222.14 4482.72 4296.59 4559.37L4297.37 4591.69C4317.28 4618.62 4334.5 4638.74 4361.96 4658.26H1738.88C1783.64 4623.02 1891.1 4526.57 1946.07 4522.56C1968.86 4520.91 1995.17 4554.81 2021.22 4553.48C2099.98 4549.38 2389.19 4387.42 2441.03 4328.24C2458.02 4280.87 2444.96 4224.28 2439.25 4175.3Z" fill="#F5EEEC"/>
<path d="M5492.11 2968.81C5536.79 2903.71 5591.02 2803.7 5677.02 2789.59C5701.56 2785.58 5721.52 2794.88 5742.88 2805.26C5754.96 2821.97 5758 2836.75 5762.15 2856.73L5783.02 2862.9C5794.1 2849.62 5800.98 2837.6 5808.14 2821.88C5859.65 2814.91 5926 2845.73 5975.07 2862.12C5939.44 2878.02 5891.61 2892.57 5869.88 2926.48C5861.86 2958.96 5864.1 2980.94 5870.57 3013.42L5872.18 3036.39L5954.47 3120C5909.35 3169.17 5864.93 3219.23 5818.98 3267.6L5791.89 3281.39C5726.14 3337.07 5695.35 3417.22 5632.2 3471.34C5586.35 3459.9 5572.4 3455.89 5546.55 3417.68C5542.55 3379.42 5550.6 3347.61 5559.9 3310.67L5510.36 3356.04L5464 3360.09C5418.7 3352.74 5402.54 3365.93 5360.03 3340.82L5348.56 3334.05C5342.12 3322.82 5331 3309.01 5330.15 3296.16C5325.25 3223.15 5389.19 3210.76 5426.07 3161.53C5452.93 3125.69 5424.46 3093.32 5455.92 3056.7L5455.58 3051.36C5461.86 3022.03 5464.63 2993.79 5490.43 2974.89L5492.11 2968.81Z" fill="#F5EEEC"/>
<path d="M5515.35 3279.25L5543.21 3228.51C5553.27 3255.97 5571.68 3283.39 5559.87 3310.67L5510.34 3356.04L5463.98 3360.09C5418.68 3352.75 5402.52 3365.94 5360 3340.82C5416.05 3325.03 5465.36 3310.18 5515.35 3279.25Z" fill="#F2C380"/>
<path d="M5490.44 2974.89C5527.04 2995.72 5545.59 3000.99 5565.82 3038.67L5560.69 3067.22C5541.68 3080.41 5525.59 3087.86 5501.51 3081.17C5485.67 3076.77 5468.82 3066.87 5455.93 3056.7L5455.59 3051.36C5461.87 3022.03 5464.63 2993.79 5490.44 2974.89Z" fill="#D67934"/>
<path d="M5791.88 3281.38C5740.07 3262.34 5687.19 3260.2 5640.14 3227.84C5653.65 3231.7 5669.33 3225.35 5687.01 3228.62C5731.02 3236.77 5776.11 3254.26 5818.97 3267.59L5791.88 3281.38Z" fill="#3E3E3F"/>
<path d="M5872.16 3036.39C5824.65 3025.34 5772.01 3017.63 5729.79 2992.35C5774.77 2985.56 5826.56 3003.4 5870.55 3013.41L5872.16 3036.39Z" fill="#575453"/>
<path d="M5515.37 3279.24C5512.58 3239.93 5500.71 3174.6 5521.63 3139.93C5537.31 3168.27 5539.52 3196.9 5543.22 3228.51L5515.37 3279.24Z" fill="#DDBBA5"/>
<path d="M5673.95 3107.36C5745.4 3104.14 5823.42 3125.78 5890.63 3148.38C5811.47 3152.48 5746.35 3139.08 5673.95 3107.36Z" fill="#757171"/>
<path d="M3126.81 4126.94L3148.57 4109.76C3289.86 4140.93 3468.76 4215.79 3612.15 4261.02C3851.64 4336.59 4171.46 4410.99 4393.71 4514.74C4444.86 4534.6 4501.85 4551.8 4548.6 4580.59C4515.32 4587.98 4474.67 4592.75 4444.14 4607.46L4443.91 4629.83L4402.07 4658.26H4361.97C4334.5 4638.74 4317.29 4618.62 4297.38 4591.69L4296.59 4559.37C4222.15 4482.72 3267.41 4283.97 3096.41 4151.91C3107.2 4145.01 3117.01 4135.27 3126.81 4126.94Z" fill="#A466EF"/>
<path d="M3096.41 4151.91C3107.2 4145.01 3117.01 4135.27 3126.81 4126.94C3215.58 4241.8 4280.64 4472.27 4331.7 4555L4326.89 4589.55L4297.38 4591.69L4296.59 4559.37C4222.15 4482.72 3267.41 4283.97 3096.41 4151.91Z" fill="#29154F"/>
<path d="M4297.36 4591.69L4326.87 4589.55C4349.8 4607.12 4362.87 4621.43 4394.25 4618.37C4410.82 4616.78 4428.01 4611.58 4444.13 4607.46L4443.9 4629.84L4402.05 4658.27H4361.95C4334.49 4638.74 4317.27 4618.63 4297.36 4591.69Z" fill="#0B0A0A"/>
<path d="M6028.36 4658.26C6106.23 4549.11 6183.21 4439.33 6259.29 4328.91C6329.29 4452.43 6407.41 4554.22 6503.75 4658.26H6028.36Z" fill="#F7F1ED"/>
<path d="M4445.73 4501.55L4453.53 4485.98C4552.53 4485.09 5019.61 4605.41 5099.81 4658.26H4955.18H4791.24H4402.06L4443.91 4629.83L4444.14 4607.46C4474.66 4592.75 4515.31 4587.98 4548.6 4580.59C4501.85 4551.8 4444.85 4534.6 4393.7 4514.74L4445.73 4501.55Z" fill="#E9E4E2"/>
<path d="M4548.6 4580.6C4620.54 4597.19 4730.73 4617.17 4791.24 4658.26H4402.06L4443.91 4629.83L4444.14 4607.46C4474.66 4592.75 4515.32 4587.98 4548.6 4580.6Z" fill="#1B0D24"/>
<path d="M4393.7 4514.74L4445.73 4501.55C4598.66 4569.2 4789.08 4639.02 4955.18 4658.26H4791.24C4730.72 4617.17 4620.53 4597.19 4548.6 4580.6C4501.85 4551.8 4444.85 4534.6 4393.7 4514.74Z" fill="#1D1927"/>
<path d="M3725.3 4268.26C3627.68 4239.16 3216.26 4136.38 3180.03 4070.25L3193.22 4056.76C3262.55 4032.59 3616.47 4150.68 3699.25 4179.27L3720.03 4223.62L3715.45 4237.07L3725.3 4268.26Z" fill="#DAD6D7"/>
<path d="M3298 4099.83C3443.8 4123.63 3583.73 4167.37 3720.05 4223.62L3715.47 4237.07C3575.75 4200.97 3432.5 4152.54 3298 4099.83Z" fill="#3E3E3F"/>
<path d="M3699.27 4179.26C3902.04 4242.15 4087.14 4320.34 4280.03 4408.16C4283.35 4420.15 4288.51 4433.48 4289.66 4445.8C4107.71 4377.47 3910.88 4327.71 3725.32 4268.25L3715.47 4237.06L3720.05 4223.62L3699.27 4179.26Z" fill="#F5EEEC"/>
<path d="M6199.56 4288.93L6219.51 4282.55L6230.4 4298.55C6202.46 4399.65 6058.77 4568.43 5995.22 4658.27H5938.41C6026.73 4536.11 6112.73 4412.17 6199.56 4288.93Z" fill="#A466EF"/>
<path d="M4293.81 4400.36C4313.01 4418.82 4331.54 4437.23 4349.08 4457.33L4347.88 4463.45C4319.06 4466.72 4313.52 4460.41 4289.67 4445.8C4288.52 4433.48 4283.36 4420.15 4280.05 4408.16L4293.81 4400.36Z" fill="#757171"/>
<path d="M5783.98 3320.63L5830.62 3330.48C5805.18 3348.53 5782.44 3362.62 5753.25 3373.9L5751.06 3359.07L5783.98 3320.63Z" fill="#E8A7C5"/>
<path d="M3480.29 2499.56C3502 2494.55 3503.45 2495.44 3523.8 2504.88L3542.37 2512.66C3471.2 2541.46 3383.31 2566.25 3323.79 2614.77L3317.04 2637.77C3356.75 2634.39 3397.61 2602.62 3432.85 2584.34C3539.57 2528.96 3655.56 2539.43 3769.71 2556.65C3791.49 2561.76 3816 2563.69 3830.99 2581.56C3790.43 2585.17 3750.65 2586.35 3709.93 2586.09C3641.59 2588.83 3561.04 2595.97 3510.95 2648.73C3504.05 2656 3497.95 2663.83 3491.94 2671.84L3494.36 2685.14C3538.37 2665.25 3589.82 2629.35 3636.38 2618.55C3749.34 2592.35 4154.96 2600.18 4260.5 2638.69C4401.72 2690.25 4553.53 2822.08 4660.29 2926.54C4696.43 2961.9 4729.55 3010.54 4770.05 3039.84C4790 3054.25 4816.82 3062.47 4840.35 3068.34L4844.4 3086.02C4818.62 3117.83 4793.41 3134.52 4751.91 3139.17C4606.33 3155.44 4306.77 2970.12 4178.5 2893.67C4013.6 2907.62 3776.09 2959.34 3666.52 3091.2C3612.88 3155.74 3600.5 3223.67 3583.62 3303.16C3555.31 3301.11 3537.91 3277.54 3516.78 3259.14L3509.78 3271.62C3541.5 3328.27 3619.4 3363.05 3680.14 3379.92C3934.87 3450.68 4153.44 3233.55 4414.17 3266.65L4413.44 3289.97C4386.87 3302.63 4352.69 3319.09 4336.18 3344.43C4302.12 3396.73 4330.94 3478.51 4342.38 3535.1C4175.24 3623.95 3990.95 3672.7 3817.84 3748.04C3636.29 3827.07 3464.34 3950.84 3270.41 3997.94C2930 4080.6 2805.97 3952.2 2433.16 4146.18C2358.23 3821.24 2246.76 3552.36 2049.81 3280.37C2397.02 3117.37 2718.29 2907.16 3051.84 2718.7C3188.83 2641.31 3331.01 2549.91 3480.29 2499.56Z" fill="#EFB896"/>
<path d="M3769.7 2556.66C3791.48 2561.77 3815.99 2563.7 3830.98 2581.56C3790.42 2585.18 3750.64 2586.35 3709.92 2586.1L3763.97 2570.7L3769.7 2556.66Z" fill="#8A705E"/>
<path d="M3480.27 2499.56C3501.97 2494.55 3503.42 2495.44 3523.77 2504.88L3480.27 2499.56Z" fill="#5B4F4B"/>
<path d="M1527.07 3410.15C1616.88 3354.47 1720.4 3301.73 1817.78 3260.67C1879.53 3234.63 1916.7 3215.71 1980.94 3242.11L1996.83 3265.13C2245.79 3563.78 2394.54 3933.14 2422.04 4320.97C2301.38 4409.06 2161.84 4468.08 2026.53 4529.77C1972.8 4121.3 1839.9 3696.03 1527.07 3410.15Z" fill="#BC75EE"/>
<path d="M6929.6 2074.96C6975.5 2082.64 7028.35 2137.68 7064.12 2166.82C6959.32 2290.78 6095.3 3297.19 6016 3336.19C5961.12 3311.77 5906.5 3292.06 5849.16 3274.15C6212.81 2878.87 6557.31 2461.33 6929.6 2074.96Z" fill="#E05CD5"/>
<path d="M6650.3 3047.74C6683.56 3074.54 6764.93 3275.22 6791.24 3328.16C6688.92 3318.33 6603.57 3296.26 6508.78 3256.2C6416.17 3331.06 6317.21 3385.71 6211.23 3438.84C6199.47 3448.34 6189.07 3452.65 6175.09 3457.6C6128.25 3439.07 6088.77 3390.8 6053.05 3355.94C6113.17 3282.28 6179.54 3213.27 6243.85 3143.25C6388.46 3128.52 6520.08 3116.32 6650.3 3047.74Z" fill="#E3A27E"/>
<path d="M6513.96 3287.34C6594.78 3326.36 6687.54 3337.32 6775.25 3351.82L6765.39 3535.42C6687.77 3529.2 6613.81 3521.72 6544.83 3482.15C6514.86 3525.2 6483 3567.02 6451.85 3609.19C6419.3 3639.53 6383.12 3667.06 6348.87 3695.54L6213.01 3500.29C6301.01 3412.89 6411.5 3356.44 6513.96 3287.34Z" fill="#E3A27E"/>
<path d="M6554.46 3527.54C6621.26 3548.72 6690.94 3557.19 6760.02 3567.6C6746.02 3617.8 6733.82 3675.72 6706.5 3720.33C6667.16 3784.57 6614.95 3802.74 6544.58 3819.29C6481.9 3807.78 6409.6 3772.37 6369.16 3721.64L6373.92 3701.82C6398 3692.71 6388.68 3709.58 6410.29 3718.9C6454.17 3650.9 6502.3 3589.37 6554.46 3527.54Z" fill="#F7F1ED"/>
<path d="M5692.35 3451.35C5709.86 3510.03 5737.56 3558.78 5768.08 3611.38C5692.74 3704.91 5617.65 3801.98 5518.88 3872.07L5411.03 3794.7C5482.48 3668.67 5596.43 3559.03 5692.35 3451.35Z" fill="#E05CD5"/>
<path d="M5779.71 3644.64C5855.99 3751.68 5931.03 3859.59 6004.83 3968.33L5827.33 3923.61C5745.87 3914.01 5658.24 3884.15 5577.92 3864.84C5647.23 3793.62 5713.25 3718.58 5779.71 3644.64Z" fill="#F7F1ED"/>
<path d="M5812.74 3367.2C5827.81 3367.36 5843.44 3367.61 5858.25 3370.84C5921.41 3384.63 5949.29 3441.34 5981.47 3491.41C5952.3 3531.81 5916.09 3566.06 5880.97 3601.19C5870.68 3606.78 5857.88 3608.88 5846.25 3609.01C5823.12 3609.31 5800.15 3597.21 5784.88 3580.29C5753.67 3545.69 5745.82 3497.26 5749.23 3452.09C5752.08 3414.3 5786.15 3390.2 5812.74 3367.2Z" fill="#EFB896"/>
<path d="M6216.2 2807.61C6220.83 2812.49 6218.98 2820.04 6219.15 2826.6C6146.71 2916.14 6064.25 3028.84 5972.5 3098.54L5953.51 3090.85C5940.55 3076.86 5927.04 3062.43 5916.29 3046.66C5898.68 3020.83 5894.49 2997.77 5899.39 2967.11C5940.34 2884.05 6129.53 2839.65 6216.2 2807.61Z" fill="#EFB896"/>
<path d="M3939.32 2967.54L3953.01 2976.7C3968.78 3009.43 3992.86 3051.19 3992.12 3088.16C3991.55 3117.87 3983.1 3156.04 3960.47 3176.83C3939.39 3196.18 3894.59 3215.34 3866.14 3212.39C3834.47 3151 3801.04 3097.18 3758.25 3042.88C3817.18 3011.83 3876.43 2989.22 3939.32 2967.54Z" fill="#E3A27E"/>
<path d="M7116.19 1864.32C7153.32 1821.04 7204.9 1746.16 7257.55 1722.89C7283.72 1711.33 7295.76 1719.27 7320.3 1728.07C7335.1 1743.42 7351.4 1758.45 7364.75 1775C7365.11 1778.34 7365.44 1781.65 7365.53 1784.99C7367.03 1850.23 7280.61 1919.54 7238.95 1963.27L7116.19 1864.32Z" fill="#E05CD5"/>
<path d="M7320.3 1728.06C7335.1 1743.42 7351.4 1758.45 7364.75 1775C7349 1760.61 7334.87 1743.72 7320.3 1728.06Z" fill="#54275E"/>
<path d="M4132.99 2922.61C4162.43 2923.21 4169.33 2921.99 4193.62 2940.71C4202.07 2968.01 4199.95 2990.63 4189.5 3017.04C4160.86 3089.36 4113.72 3128.63 4044.82 3159.04C4013.52 3123.57 4001.2 3016.9 3973.65 2965.7C4025.95 2948.92 4079.83 2936.35 4132.99 2922.61Z" fill="#E3A27E"/>
<path d="M3736.65 3065.45C3781.65 3094.17 3814.15 3175.29 3838.64 3221.52C3801.28 3239.63 3761.92 3254.8 3723.71 3271.14C3702.1 3273.77 3679.79 3274.16 3658.01 3275.49C3632.58 3258.81 3633.8 3258.51 3627.42 3228.56C3642.82 3161 3688.12 3111.83 3736.65 3065.45Z" fill="#E3A27E"/>
<path d="M4392.65 3320.9C4428.3 3324.22 4455.95 3328.82 4484.22 3352.3C4512.48 3375.76 4518.51 3396.68 4522.31 3431.97C4505.12 3468.78 4494.55 3471.98 4460.9 3492.83C4419.9 3503.81 4401.53 3507.89 4363.55 3488.48C4349.14 3465.62 4342.74 3455.47 4342.05 3428.45C4340.83 3381.65 4361.55 3353.38 4392.65 3320.9Z" fill="#EFB896"/>
<path d="M7096.93 1891.36C7144.31 1907.51 7183.74 1945.79 7222.22 1976.92L7159.2 2058.17C7123.2 2034.81 7068.8 2008.84 7050.69 1968.72C7056.33 1929.75 7071.11 1920.22 7096.93 1891.36Z" fill="#E6AE77"/>
<path d="M7016.56 1983.67C7052.31 2009.24 7103.27 2037 7123.67 2076.73C7119.76 2112.37 7106.96 2117.32 7081.8 2141.74C7076 2140.38 7074.66 2140.33 7068.52 2137.41C7033.25 2120.7 6987.72 2092.39 6974.44 2054.84C6977.45 2017.37 6991.4 2010.6 7016.56 1983.67Z" fill="#EC7F72"/>
<path d="M5395.15 3821.43C5396.95 3822.1 5398.76 3822.63 5400.51 3823.39C5430.67 3836.76 5457.48 3857.73 5469.5 3887.73C5454.15 3923.11 5435.36 3929.73 5403.74 3950.82C5381.11 3960.03 5373.12 3967.74 5348.61 3958.97C5342.48 3917.14 5378.14 3859.5 5395.15 3821.43Z" fill="#F7F1ED"/>
<path d="M3808.56 3269.07L3816.78 3278.53C3807.73 3304.58 3787.66 3321.94 3766.41 3338.72C3726.82 3370.03 3704.77 3363.7 3657.69 3357.3L3634.28 3336.26L3633.41 3316.83C3675.67 3289.14 3756.51 3285.71 3808.56 3269.07Z" fill="#F5EEEC"/>
<path d="M4414.17 3266.65C4461.5 3281.54 4524.76 3296.76 4550.26 3343.9C4564.42 3370.03 4560.78 3397.56 4551.28 3424.28C4496.72 3344.43 4531.43 3318.19 4413.44 3289.97L4414.17 3266.65Z" fill="#B09680"/>
<path d="M4716.55 2951.45C4763.57 2965.06 4809.18 3005.46 4846.86 3035.63L4811.09 3036.83C4769.65 3020.86 4744.22 2984.46 4716.55 2951.45Z" fill="#979592"/>
<path d="M5133.69 2590.59C5148.75 2583.91 5166.42 2590.15 5173.93 2604.84C5181.43 2619.52 5176.16 2637.5 5161.91 2645.79C5151.99 2651.59 5139.68 2651.4 5129.89 2645.33C5120.13 2639.27 5114.54 2628.29 5115.32 2616.83C5116.13 2605.36 5123.2 2595.26 5133.69 2590.59Z" fill="#E9E4E2"/>
<path d="M4738.07 2496.89C4749.26 2494.27 4760.97 2498.07 4768.48 2506.79C4775.98 2515.49 4778.03 2527.67 4773.77 2538.35C4769.51 2549.01 4759.66 2556.44 4748.22 2557.59C4732.04 2559.25 4717.37 2548.04 4714.68 2532C4712.01 2515.98 4722.23 2500.6 4738.07 2496.89Z" fill="#E9E4E2"/>
<path d="M4927.94 2532.74L4955.12 2549.52C4967.16 2578.32 4963.96 2579.28 4952.59 2608.86C4930.36 2598.32 4909.22 2595.14 4900.52 2571.39L4927.94 2532.74Z" fill="#E9E4E2"/>
<path d="M6002.92 2798.37C6010.74 2791 6022 2788.63 6032.13 2792.2C6042.23 2795.79 6049.53 2804.7 6051 2815.34C6052.48 2825.97 6047.9 2836.51 6039.13 2842.71C6026.81 2851.41 6009.87 2849.1 6000.34 2837.43C5990.81 2825.74 5991.94 2808.68 6002.92 2798.37Z" fill="#DAD6D7"/>
<path d="M5359.16 2659.23C5367.95 2653.68 5379.14 2653.8 5387.81 2659.46C5396.49 2665.15 5401.07 2675.37 5399.51 2685.63C5397.97 2695.88 5390.58 2704.3 5380.59 2707.16C5367.9 2710.77 5354.48 2704.53 5349.1 2692.47C5343.71 2680.43 5347.99 2666.25 5359.16 2659.23Z" fill="#E9E4E2"/>
<path d="M5829.5 2753.68C5842.09 2749.62 5855.72 2755.66 5861.17 2767.69C5866.63 2779.73 5862.18 2793.96 5850.84 2800.75C5842.27 2805.88 5831.5 2805.63 5823.17 2800.13C5814.81 2794.63 5810.37 2784.82 5811.73 2774.9C5813.08 2765 5819.99 2756.76 5829.5 2753.68Z" fill="#B8B6B5"/>
<path d="M6173 310.206C6375.93 304.727 7628.09 284.471 7726.68 331.659C7741.95 338.956 7743.35 341.282 7749.06 357.211C7771.89 421.066 7773.8 1402.25 7752.1 1440.3C7740.66 1460.37 7732.42 1459.89 7711.42 1466.24L6688.9 1469C6493.86 1469.05 6296.45 1474.97 6101.84 1463.59C6086.79 1264.14 6096.83 1056.78 6096.3 856.446C6095.86 696.096 6080.14 520.599 6103.06 362.551C6118.42 332.465 6143.78 323.649 6173 310.206Z" fill="#151416"/>
<path d="M6124.53 513.858L7732.89 514.618C7733.76 821.99 7739.61 1130.38 7731.69 1437.63L6125.49 1436.07C6120.22 1128.9 6124.34 821.093 6124.53 513.858Z" fill="#F5EEEC"/>
<path d="M6289.8 1050.24L6279.01 1043.5L6278.64 1031.23C6300.87 1027.54 6382.45 1025.1 6401.1 1027.01C6555.51 1042.9 7539.18 997.573 7606.97 1040.57L7598.75 1085.09C7592.1 1106.75 7583.35 1139 7575.44 1159.19L7587.04 1182.78L7581.31 1233.01L7573.48 1248.69C7297.64 1259.32 6993.77 1243.37 6713.54 1249.79L6701.86 1288.3L6698.64 1300.09C6692.7 1302.53 6686.63 1304.55 6680.41 1306.17C6646.83 1315.12 6312.06 1317.21 6273.94 1293.27L6264.76 1261.67L6273.85 1218.23L6265.29 1188.42L6280.2 1155.9C6281.35 1149.94 6281.01 1123 6281.06 1115.2L6280.34 1090.16L6289.8 1050.24Z" fill="#E9E4E2"/>
<path d="M6280.2 1155.91C6711.51 1160.53 7145.39 1153.19 7575.44 1159.2L7587.04 1182.79L7581.31 1233.02L7573.48 1248.7C7297.64 1259.33 6993.77 1243.38 6713.54 1249.8L6701.86 1288.31L6698.64 1300.1C6692.7 1302.54 6686.63 1304.56 6680.41 1306.17C6646.83 1315.13 6312.06 1317.22 6273.94 1293.28L6264.76 1261.68L6273.85 1218.24L6265.29 1188.43L6280.2 1155.91Z" fill="#DAD6D7"/>
<path d="M6273.85 1218.23C6425.89 1218.05 7521.29 1205.71 7581.31 1233.01L7573.48 1248.69C7297.64 1259.32 6993.77 1243.37 6713.54 1249.79L6701.86 1288.3L6698.64 1300.09C6692.7 1302.53 6686.63 1304.56 6680.41 1306.17C6646.83 1315.12 6312.06 1317.22 6273.94 1293.28L6264.76 1261.67L6273.85 1218.23Z" fill="#3E3E3F"/>
<path d="M6333.58 1251.87C6454.3 1251.06 6594.44 1246.62 6713.54 1249.8L6701.86 1288.31L6698.64 1300.09C6692.7 1302.53 6686.63 1304.56 6680.41 1306.17C6646.83 1315.13 6312.06 1317.22 6273.94 1293.28L6264.76 1261.68L6318.83 1250.23L6333.58 1251.87Z" fill="#DAD6D7"/>
<path d="M6273.93 1293.28C6334.84 1275.09 6629.55 1281.06 6701.85 1288.31L6698.63 1300.09C6692.69 1302.53 6686.61 1304.56 6680.4 1306.17C6646.81 1315.12 6312.05 1317.22 6273.93 1293.28Z" fill="#2B2929"/>
<path d="M6280.21 1155.91C6711.52 1160.53 7145.4 1153.19 7575.45 1159.2L7587.05 1182.79C7248.69 1175.22 6907.27 1184.04 6568.66 1181.43C6469.06 1180.67 6364.21 1180.74 6265.3 1188.43L6280.21 1155.91Z" fill="#2B2929"/>
<path d="M6289.81 1050.24L6279.02 1043.5L6278.65 1031.23C6300.88 1027.54 6382.46 1025.1 6401.11 1027.01C6555.52 1042.9 7539.19 997.573 7606.98 1040.57L7598.76 1085.09L7581.36 1093.01C7499.8 1084.22 7253.43 1090.11 7157.56 1090.09L6280.35 1090.16L6289.81 1050.24Z" fill="#E9E4E2"/>
<path d="M6289.81 1050.24L6279.02 1043.5L6278.65 1031.23C6300.88 1027.54 6382.46 1025.1 6401.11 1027.01C6555.52 1042.9 7539.19 997.573 7606.98 1040.57C7549.46 1057.19 7529.89 1055.86 7471.4 1055.63L7461.11 1055.58L7446.19 1055.56H7426.58H7411.67H7394.45L7376.98 1055.51L7359.92 1055.56L7342.45 1055.51H7332.48L6643.82 1055.9L6628.08 1055.05C6515.17 1054.89 6402.61 1055.7 6289.81 1050.24Z" fill="#2B2929"/>
<path d="M6280.31 1090.16L7157.52 1090.09C7253.39 1090.11 7499.77 1084.22 7581.32 1093.01C7559.61 1116.81 7558.35 1112.21 7522.62 1113.2C7111.64 1124.59 6691.16 1101.41 6281.03 1115.2L6280.31 1090.16Z" fill="#151416"/>
<path d="M6261.19 609.039L6638.56 605.608C6637.13 717.688 6637.25 829.767 6638.88 941.846L6259.09 941.317L6261.19 609.039Z" fill="#42153F"/>
<path d="M6282.38 636.551L6614.19 638.185L6613.32 914.344C6504.95 923.068 6393.74 918.211 6284.98 918.234L6282.38 636.551Z" fill="#E05CD5"/>
<path d="M6744.48 843.905C6796.69 808.847 7350.75 826.134 7442.78 826.572C7441.29 842.317 7444.46 835.825 7433.18 846.713L7455.56 891.255L7465.71 903.248C7441.26 921.341 6831.05 922.146 6764.53 909.601L6752.95 885.869C6738.54 870.17 6739.35 853.32 6736.47 831.291L6744.48 843.905Z" fill="#F7F1ED"/>
<path d="M7455.58 891.257L7465.73 903.25C7441.28 921.343 6831.07 922.149 6764.55 909.603L6752.97 885.871C6859.48 884.951 7377.29 874.753 7455.58 891.257Z" fill="#151416"/>
<path d="M6744.47 843.905C6796.68 808.847 7350.74 826.134 7442.77 826.572C7441.28 842.317 7444.45 835.825 7433.17 846.713C7368.44 857.21 6816.96 851.571 6744.47 843.905Z" fill="#23160F"/>
<path d="M7030.91 790.342C6933.06 791.93 6863.84 796.511 6767.39 772.733L6763.04 767.991C6851.98 758.277 7438.92 745.686 7498.91 767.807L7491.84 780.766C7440.21 794.071 7310.38 790.803 7250.93 791.056L7237.02 790.987L7190.98 791.217L7171.4 790.964L7117.69 792.253L7102.15 793.105L7055.31 791.033L7030.91 790.342Z" fill="#3E3E3F"/>
<path d="M7471.06 717.873C7366.63 724.203 6866.1 727.149 6763.44 715.524L6769.26 706.087C6850.91 684.61 7397.33 692.459 7504.28 697.27L7507.96 709.747C7491.96 715.133 7487.32 718.77 7471.06 717.873Z" fill="#3E3E3F"/>
<path d="M7471.09 717.87C7478.55 713.864 7498.44 711.425 7507.99 709.744C7491.99 715.131 7487.35 718.768 7471.09 717.87Z" fill="#858281"/>
<path d="M6782.17 623.702C6869.65 621.838 7393.49 610.881 7433.15 640L7412.36 651.003C7319.46 651.717 6800.89 673.676 6759.89 634.682L6782.17 623.702Z" fill="#2B2929"/>
<path d="M6397.75 338.338L7278.25 336.658C7415.18 336.75 7596.99 331.962 7729.81 338.914C7731.65 388.473 7734.71 442.016 7734.07 491.277C7256.63 482.944 6772.91 496.133 6296.83 479.007C6248.17 481.263 6193.02 487.432 6147.02 473.897C6138.3 465.035 6128.61 459.073 6126.56 447.264C6102.21 307.861 6308.62 338.615 6397.75 338.338Z" fill="#5CBDD0"/>
<path d="M6296.83 479.009C6248.17 481.265 6193.02 487.434 6147.02 473.899C6138.3 465.037 6128.61 459.075 6126.56 447.266C6102.21 307.863 6308.62 338.617 6397.75 338.34C6381.79 370.199 6373.28 403.024 6333.66 411.564C6331.84 419.62 6326.73 426.526 6319.55 430.6C6312.39 434.675 6303.83 435.526 6296 432.971C6296.14 448.325 6296.42 463.656 6296.83 479.009Z" fill="#80B6C6"/>
<path d="M6295.97 432.974C6280.91 428.071 6272.47 412.096 6276.91 396.903C6281.35 381.711 6297.05 372.779 6312.38 376.738C6327.71 380.698 6337.13 396.12 6333.63 411.566C6331.81 419.623 6326.7 426.528 6319.52 430.603C6312.36 434.677 6303.8 435.529 6295.97 432.974Z" fill="#1D1927"/>
<path d="M6180.82 369.394C6199.49 372.087 6213.58 376.046 6230.38 384.655L6219.68 413.268L6250.13 426.182C6228.24 442.341 6228.47 444.919 6201.88 441.167C6183.33 412.094 6182.2 402.541 6180.82 369.394Z" fill="#151416"/>
<path d="M1474.25 551.764C1650.09 551.81 2393.12 522.484 2513.92 576.256C2563.83 633.205 2543.48 811.28 2542.68 886.552C2618.85 888.762 2767.27 865.19 2823.53 923.912C2876.66 979.341 2854.84 1128.14 2852.81 1200.99C2828.25 1227.46 2797.29 1248.57 2768.56 1270.35C2809.07 1313.76 2841.58 1364.4 2875.48 1413C2786.68 1376.19 2694.07 1311.04 2600.61 1291.89C2591.22 1294.01 2576.17 1294.77 2569.56 1301.72C2522.17 1351.6 2541.32 1486.66 2543.04 1553.25C2544.29 1660.06 2569.84 1849.18 2525.27 1945.95C2430.64 1980.25 1530.81 1976.27 1425.47 1945.63C1400.49 1820.55 1390.52 711.033 1416.31 607.355C1422.8 581.229 1452.95 565.138 1474.25 551.764Z" fill="#151416"/>
<path d="M1438.28 780.422L2168.38 781.227C2263.17 781.434 2366.63 770.317 2460.07 779.087C2484.56 781.389 2493.49 784.174 2513.19 798.837C2514.3 810.761 2516.95 827.426 2514.16 839.074C2493.7 924.405 2368.77 875.651 2308.85 920.538C2280.68 957.276 2283.65 995.028 2282.31 1039.2C2280.37 1103.17 2267.53 1204.87 2316.84 1254.87C2364.7 1303.39 2448.56 1295.63 2511.33 1297.31L2511.79 1674.43L2514.18 1930.59C2160.02 1948.7 1796.99 1932.08 1442 1931.95C1429.41 1549.23 1438.37 1163.46 1438.28 780.422Z" fill="#F5EEEC"/>
<path d="M1565.2 921.827C1709.75 922.195 1893.55 917.844 2034.87 926.776L2035.12 1452.92L2034.68 1503.01L2035.14 1518.96C1979.32 1535.81 1668.83 1527.71 1591.35 1526.95C1586 1514.86 1588.62 1517.83 1590.01 1501.47L1574.72 1449.93C1554.24 1378.16 1564.12 1010.27 1565.2 921.827Z" fill="#3E3E3F"/>
<path d="M1574.73 1449.93C1659.08 1461.14 1946.7 1460.77 2035.13 1452.92L2034.69 1503.01L2035.15 1518.96C1979.33 1535.81 1668.84 1527.71 1591.36 1526.95C1586.01 1514.86 1588.63 1517.83 1590.02 1501.47L1574.73 1449.93Z" fill="#DAD6D7"/>
<path d="M1590 1501.47C1651.21 1497.92 1988.42 1490.95 2034.68 1503.01L2035.13 1518.96C1979.31 1535.81 1668.83 1527.71 1591.35 1526.95C1586 1514.87 1588.62 1517.84 1590 1501.47Z" fill="#2B2929"/>
<path d="M1799.56 1206.27C1875.08 1270.42 1943.11 1357.48 2005.3 1434.39L1809.34 1433.21L1589.79 1432.71C1660.93 1358.56 1729.25 1281.27 1799.56 1206.27Z" fill="#F5EEEC"/>
<path d="M1596.31 951.177C1727.7 953.456 1859.43 951.108 1990.85 950.556C1955.06 995.512 1917.37 1039.2 1880.51 1083.33L1799.22 1171.68C1732.62 1097.21 1664.98 1023.71 1596.31 951.177Z" fill="#E9E4E2"/>
<path d="M1999.9 974.103C2028.11 1013.79 2013.26 1336.35 2013.91 1406.33C1986.29 1373.9 1957.19 1342.52 1928.8 1310.73C1890.11 1269.51 1853.51 1225.7 1816.07 1183.28C1879.88 1115.85 1939.56 1044.61 1999.9 974.103Z" fill="#E9E4E2"/>
<path d="M1591 976.283L1677.03 1068.22C1690.42 1080.51 1699.66 1086.18 1707.73 1101.69L1784.9 1186.01C1722.3 1258.4 1658.05 1329.35 1592.18 1398.8L1591 976.283Z" fill="#E9E4E2"/>
<path d="M1677.01 1068.22C1690.4 1080.52 1699.65 1086.18 1707.71 1101.69C1694.72 1094.37 1686.81 1080.88 1677.01 1068.22Z" fill="#979592"/>
<path d="M2085.21 1462.4C2132.84 1437.33 2278.1 1443.75 2336.3 1448.54L2344.75 1463.83L2355.01 1504.71L2362.24 1529.2L2356.97 1575.1L2357.91 1595.96L2370.53 1645.84L2360.58 1702.6L2364.2 1711.74L2377.5 1774.12C2326.52 1812.61 1694.97 1794.43 1589.54 1789.08L1579.77 1767.7L1579.97 1734.58L1577.21 1710.04L1578.81 1664.35L1574.42 1630.83L1586.68 1596.39L1586.01 1572.52L1591.38 1526.94C1668.86 1527.7 1979.34 1535.81 2035.16 1518.96L2040.37 1550.24C2077.37 1572.96 2276.4 1554.52 2339.68 1554.18L2344.96 1545.04C2290.9 1545.34 2174.31 1550.08 2128.27 1535.65L2108.16 1507.93L2085.21 1462.4Z" fill="#DAD6D7"/>
<path d="M2046.15 1701.75L2063.15 1691.87L2071.48 1700.99C2166.82 1700.9 2265.68 1695.21 2360.58 1702.6L2364.19 1711.74L2377.5 1774.12C2326.51 1812.61 1694.96 1794.42 1589.54 1789.08L1579.77 1767.7L1579.96 1734.57L1577.2 1710.04C1652.49 1679.72 1946.19 1700.48 2046.15 1701.75Z" fill="#E9E4E2"/>
<path d="M1579.77 1767.7C1692.29 1754.07 2297.96 1737.78 2377.5 1774.12C2326.51 1812.61 1694.96 1794.42 1589.54 1789.08L1579.77 1767.7Z" fill="#2B2929"/>
<path d="M1577.2 1710.03C1652.49 1679.72 1946.19 1700.48 2046.15 1701.75C1967.54 1757.75 1694.07 1716.5 1579.96 1734.57L1577.2 1710.03Z" fill="#2B2929"/>
<path d="M2071.48 1700.99C2166.82 1700.9 2265.69 1695.22 2360.58 1702.61L2364.2 1711.74C2314.82 1741.05 2136.57 1735.41 2080.01 1723.67L2071.48 1700.99Z" fill="#151416"/>
<path d="M2085.17 1462.4C2132.8 1437.33 2278.07 1443.75 2336.26 1448.54L2344.71 1463.83L2354.98 1504.71L2362.21 1529.2L2356.93 1575.1L2357.88 1595.96L2044.97 1598.81C1940.5 1591.61 1833.49 1595.86 1728.7 1595.5L1714.88 1596L1586.65 1596.39L1585.97 1572.52L1591.34 1526.94C1668.82 1527.7 1979.31 1535.81 2035.13 1518.96L2040.34 1550.24C2077.33 1572.96 2276.36 1554.52 2339.65 1554.18L2344.92 1545.04C2290.87 1545.34 2174.27 1550.08 2128.23 1535.65L2108.12 1507.93L2085.17 1462.4Z" fill="#DAD6D7"/>
<path d="M2085.2 1462.4C2132.82 1437.33 2278.09 1443.75 2336.29 1448.54L2344.74 1463.83L2355 1504.71L2362.23 1529.2C2284.87 1528.07 2204.78 1523.08 2128.25 1535.65L2108.15 1507.93L2085.2 1462.4Z" fill="#E9E4E2"/>
<path d="M2085.2 1462.4C2132.82 1437.33 2278.09 1443.75 2336.29 1448.54L2344.74 1463.83C2287.42 1477.11 2145.04 1471.35 2085.2 1462.4Z" fill="#151416"/>
<path d="M2141.17 1505.6L2354.98 1504.7L2362.21 1529.2C2284.85 1528.07 2204.76 1523.07 2128.23 1535.64L2108.12 1507.93L2122.59 1504.36L2141.17 1505.6Z" fill="#151416"/>
<path d="M1585.97 1572.53C1836.86 1566.27 2106.7 1558.58 2356.93 1575.11L2357.88 1595.96L2044.97 1598.81C1940.5 1591.61 1833.49 1595.87 1728.7 1595.5L1714.88 1596.01L1586.65 1596.4L1585.97 1572.53Z" fill="#2B2929"/>
<path d="M2045 1598.81L2357.91 1595.95L2370.52 1645.83C2322.2 1682.27 2165.46 1670.97 2102.98 1662.32C2094.77 1661.16 2088.22 1658.82 2080.48 1656.01C2074.55 1624.73 2072.74 1625.05 2047.17 1605.6L2045 1598.81Z" fill="#DAD6D7"/>
<path d="M2080.47 1656.01L2102.08 1636.31C2182.26 1628.85 2295.21 1616.97 2370.51 1645.84C2322.19 1682.27 2165.45 1670.97 2102.97 1662.32C2094.76 1661.17 2088.21 1658.82 2080.47 1656.01Z" fill="#3E3E3F"/>
<path d="M1714.92 1596.01L1728.73 1595.5C1833.52 1595.87 1940.54 1591.61 2045.01 1598.81L2047.17 1605.61C2036.78 1617.55 2029.54 1626 2025.15 1641.7C1946.5 1612.19 1674.22 1630.6 1574.42 1630.83L1586.68 1596.4L1714.92 1596.01Z" fill="#DAD6D7"/>
<path d="M1574.42 1630.83C1674.22 1630.59 1946.5 1612.18 2025.15 1641.69C2018.65 1646.92 2008.59 1657.67 2001.37 1660.8C1967.04 1675.76 1633.06 1668.55 1578.81 1664.34L1574.42 1630.83Z" fill="#2B2929"/>
<path d="M2086.72 992.879C2109.04 990.646 2131.4 988.805 2153.79 987.4C2194.47 985.145 2214.36 988.712 2244.69 1015.78C2218.27 1018.82 2190.04 1023.24 2163.46 1022.8C2126.64 1022.18 2111.76 1019.72 2086.72 992.879Z" fill="#3E3E3F"/>
<path d="M2092.56 1072.57C2135.01 1067.85 2193.59 1057.68 2233.28 1074.53L2239.94 1096.44C2214.81 1098.17 2188.77 1100.58 2163.56 1099.85C2130.59 1098.88 2115.66 1095.8 2092.56 1072.57Z" fill="#151416"/>
<path d="M2109.88 1154.29C2135.24 1147.75 2137.26 1144.04 2159.43 1157.09C2148.93 1167.41 2137.23 1168.4 2123.39 1171.09L2109.88 1154.29Z" fill="#151416"/>
<path d="M1616.7 747.433C1570.94 750.655 1497.09 762.118 1459.35 742.529C1438.78 711.385 1436.03 701.832 1437.14 663.574C1440.55 546.247 1629.14 581.696 1703.63 584.435C1808.67 584.228 2442.23 566.273 2495.29 608.628C2512.69 646.817 2507.35 687.79 2505.62 729.938C2487.67 752.381 2480.07 755.213 2447.39 754.821C2174.55 751.484 1888.19 760.691 1616.7 747.433Z" fill="#5CBDD0"/>
<path d="M1616.7 747.433C1570.94 750.655 1497.09 762.118 1459.35 742.529C1438.78 711.385 1436.03 701.832 1437.14 663.574C1440.55 546.247 1629.14 581.696 1703.63 584.435L1605.72 599.72C1622.34 682.358 1659.78 628.263 1616.7 747.433Z" fill="#88C7C9"/>
<path d="M1696.47 637.913C1710.25 627.002 1730.11 628.521 1742.06 641.434C1754.01 654.325 1754.01 674.26 1742.06 687.173C1733.47 696.427 1720.4 700.11 1708.24 696.68C1696.07 693.25 1686.85 683.306 1684.37 670.899C1681.89 658.515 1686.56 645.762 1696.47 637.913Z" fill="#12364B"/>
<path d="M2349.51 919.704C2451.18 921.5 2719.77 886.027 2790.57 936.807C2843.61 1009.85 2825.61 1114.97 2822.89 1200.93C2793.18 1216.79 2750.91 1233.64 2733.4 1263.24C2729.02 1270.65 2738.83 1294.36 2741.5 1303.48L2756.92 1323.02C2706.39 1320.19 2655.43 1274.45 2603.8 1264.46C2522.08 1248.67 2413.29 1288.81 2341.96 1238.36C2320.6 1210.89 2312.77 1185.8 2309.57 1151.34C2302.02 1069.79 2296.25 984.388 2349.51 919.704Z" fill="#E05CD5"/>
<path d="M3404.94 1114.03C3589.78 1095.48 3791.91 1111.02 3978.62 1110.79C4241.01 1110.49 4509.94 1098.06 4771.72 1111.94C4820.31 1114.51 4872.49 1118.27 4917.31 1138.45C4924.26 1152.31 4929.05 1166.4 4931.45 1181.75C4950.18 1301.4 4931.1 1436.2 4931.72 1557.63C4932.43 1698.37 4949.26 1847.19 4934.3 1986.89C4931.97 2008.62 4926.4 2024.02 4913.35 2041.58C4754.8 2049.68 3454.73 2061.1 3390.42 2023.12C3383.42 2007.17 3378.58 1991.05 3376.05 1973.79C3358.77 1855.56 3374.07 1726.77 3373.27 1607.26C3372.35 1469.31 3351.08 1317.2 3372.48 1180.76C3376.63 1154.38 3389.04 1134.91 3404.94 1114.03Z" fill="#151416"/>
<path d="M3398.41 1301.07C3897.92 1284.42 4402.4 1297.73 4902.42 1297.54C4903.44 1534.78 4911.7 1774.93 4900.19 2011.75C4401.62 2023.49 3900.22 2012.95 3401.38 2013.41C3387.08 1778.96 3395.44 1536.11 3398.41 1301.07Z" fill="#F5EEEC"/>
<path d="M3507.74 1435.47C3661.74 1436.32 3815.92 1433.91 3969.94 1433.08L3970.96 1883.44C3816.45 1883.95 3661.95 1883.47 3507.45 1881.95C3506.06 1733.13 3506.18 1584.29 3507.74 1435.47Z" fill="#1B0D24"/>
<path d="M3535.14 1459.8L3947.36 1458.28L3947.57 1666.55C3809.55 1668.12 3671.39 1666.74 3533.37 1666.55L3535.14 1459.8Z" fill="#E05CD5"/>
<path d="M3535.8 1696.16L3946.82 1698.2L3948.96 1856.51C3811.91 1861.25 3673.8 1858.76 3536.6 1859.64L3535.8 1696.16Z" fill="#A466EF"/>
<path d="M4076.83 1648.69C4266.21 1629.7 4477.77 1637.2 4668.69 1642.24C4704.28 1643.16 4723.02 1642.04 4747.85 1668.14C4569.02 1693.85 4362.75 1679.03 4180.99 1677.16C4137.39 1676.73 4108.3 1680.87 4076.83 1648.69Z" fill="#3E3E3F"/>
<path d="M4078.22 1567.46C4242.8 1554.18 4446.5 1546.7 4609.29 1570.08L4623.38 1591.19C4489.87 1602.4 4216.03 1614.7 4090.35 1590.02L4078.22 1567.46Z" fill="#3E3E3F"/>
<path d="M4073.33 1728.27C4197.61 1714.5 4449.76 1706.31 4566.44 1729.7L4573.12 1748.99C4428.65 1763.83 4231.65 1776.52 4089.51 1751.52L4073.33 1728.27Z" fill="#2B2929"/>
<path d="M4078.9 1486.69C4183.54 1479.83 4300.39 1476.65 4404.43 1484.46C4439.4 1487.08 4448.56 1485.4 4471.69 1512.35C4352.78 1516.11 4205.94 1533.35 4090.2 1509.41L4078.9 1486.69Z" fill="#2B2929"/>
<path d="M4072.11 1809.84C4138.27 1802.13 4203.73 1794.65 4266.6 1821.38C4202.37 1830.91 4131.27 1842.69 4072.11 1809.84Z" fill="#151416"/>
<path d="M3959.36 1266.46C3810.68 1277.39 3587.54 1271.39 3434.51 1269.15C3413.65 1268.85 3415.75 1265.29 3403.02 1249.2C3401.15 1213.54 3397.49 1194.36 3412.62 1161.98C3482.89 1111.54 4315.81 1156.06 4478.07 1140.73C4536.33 1135.23 4820.76 1139.69 4880.35 1146.19C4903.07 1178.18 4916.91 1218.28 4897.62 1256.47C4854.11 1276.7 4064.72 1267.89 3959.36 1266.46Z" fill="#5CBDD0"/>
<path d="M3959.36 1266.46C3810.68 1277.39 3587.54 1271.39 3434.51 1269.15C3413.65 1268.85 3415.75 1265.29 3403.02 1249.2C3401.15 1213.54 3397.49 1194.36 3412.62 1161.98C3482.89 1111.54 4315.81 1156.06 4478.07 1140.73C4536.33 1135.23 4820.76 1139.69 4880.35 1146.19C4623.28 1149.11 4366.15 1149.98 4109.05 1148.81C3993.32 1148.62 3803.39 1142.87 3694.3 1151.04C3697.82 1168.21 3693.72 1161.54 3704.4 1172.91C3696.21 1223.12 3703.94 1205.23 3672.29 1245.47C3720.03 1281.31 3884.18 1257.8 3959.36 1266.46Z" fill="#80B6C6"/>
<path d="M3582.14 1168.45L3590.98 1151.14C3627.46 1146.12 3612.85 1144.09 3646.45 1158.55L3635.4 1234.77L3580.3 1227.06C3586.65 1208.11 3583.45 1188.61 3582.14 1168.45Z" fill="#5CBDD0"/>
<path d="M3646.47 1158.55L3704.41 1172.91C3696.21 1223.12 3703.95 1205.23 3672.3 1245.47L3635.42 1234.76L3646.47 1158.55Z" fill="#0D191B"/>
<path d="M3580.3 1227.06C3551.78 1222.5 3561.54 1228.28 3543.75 1205.37L3551.67 1179.89L3582.15 1168.45C3583.46 1188.61 3586.66 1208.11 3580.3 1227.06Z" fill="#0B0A0A"/>
<path d="M3476.22 1189.86L3496.11 1185.21L3503.08 1198.9L3488.95 1224.16L3476.91 1224.57L3463.86 1211.84L3476.22 1189.86Z" fill="#0B0A0A"/>
<path d="M3995.06 10.1977C4093.81 8.37923 4452.68 -18.3455 4516.51 22.8354C4559.4 50.5272 4545.98 127.065 4594.13 137.332C4663.14 152.018 4755.86 107.108 4814.65 159.982C4834.54 207.033 4839.1 257.583 4840.5 308.202C4842.09 365.588 4847.94 449.63 4807.38 492.745C4759.61 513.462 4699.51 506.947 4648.23 506.901C4617.93 527.457 4590.2 552.272 4562.11 575.705C4517.85 621.329 4467.53 658.919 4417.37 697.706L4467.11 516.73C4395.18 515.142 4336.8 512.679 4267.63 491.064C4230.43 532.222 4186.97 567.74 4145.31 604.225L4186.53 425.069C4129.59 424.977 4044.21 435.197 3995.94 400.761C3971.49 383.313 3965.3 355.989 3961.22 327.284C3949.19 242.597 3942.23 79.9222 3995.06 10.1977Z" fill="#151416"/>
<path d="M4435.87 163.049C4522.19 160.057 4610.98 151.401 4697.21 153.772C4729.13 154.647 4765.32 162.888 4786.38 188.761C4833.22 246.332 4808.82 404.311 4805.37 477.005C4732.15 478.11 4659.91 472.01 4595.81 512.708C4563.72 542.356 4527.42 584.688 4485.94 599.627C4472.26 576.516 4485.02 544.243 4489.55 517.91C4468.03 469.984 4346.86 489.596 4302.8 440.589C4266.2 399.891 4292.49 230.955 4294.14 171.842L4435.87 163.049Z" fill="#E05CD5"/>
<path d="M4221.07 37.1545C4300.6 36.4179 4466.59 13.8361 4525.31 68.0919C4530.56 95.8297 4535 102.298 4519.81 127.481C4474.62 145.597 4416.48 136.597 4368.41 136.343C4329.65 136.159 4306.98 136.872 4279.19 164.426C4257.9 223.953 4265.93 294.184 4266.78 356.589C4266.19 375.142 4264 377.306 4253.92 391.992C4171.09 408.473 4080.7 393.051 3997.69 383.337C3991.43 269.807 3992.63 156.945 3994.17 43.3465L4221.07 37.1545Z" fill="#43BFB9"/>
<path d="M4229.5 414.824L4252.01 422.881L4258.48 444.243L4234.98 488.002L4219.41 489.728L4211.7 475.986L4229.5 414.824Z" fill="#DAD6D7"/>
</svg>
